<?xml version="1.0" encoding="UTF-8"?>
<svg version="1.1" xmlns="http://www.w3.org/2000/svg" width="250" height="150.5" viewBox="0 0 500 401" preserveAspectRatio="xMidYMid meet">
<path d="M0 0 C3.5595438 3.25816366 6.09523513 6.96974635 8.6875 11 C15.80742117 21.86120963 23.67831088 32.02951563 32 42 C32.82298584 42.99539795 33.64597168 43.9907959 34.49389648 45.01635742 C42.06041143 54.0704336 50.18839262 62.46675596 58.56494141 70.77075195 C60.76661905 72.95397978 62.95999532 75.14529844 65.15234375 77.33789062 C66.5750475 78.75568346 67.99820832 80.17301784 69.421875 81.58984375 C70.06477478 82.23163071 70.70767456 82.87341766 71.37005615 83.53465271 C75.20711267 87.33231127 79.15396197 90.95445971 83.24290466 94.4797821 C85.64731451 96.56004878 87.97723187 98.71769165 90.3125 100.875 C94.8517496 105.01925965 99.53458296 108.92578398 104.31640625 112.78515625 C106.94708557 114.95632827 109.47942424 117.20241357 112 119.5 C116.24570332 123.36459294 120.62960354 127.01164084 125.08984375 130.625 C129.89838433 134.54928547 134.61761246 138.57836456 139.34716797 142.59716797 C140.97028067 143.97477588 142.5959304 145.34931757 144.22265625 146.72265625 C165.9861408 165.09644749 165.9861408 165.09644749 175.77734375 173.99609375 C177.80405642 175.82334085 179.86313276 177.6023589 181.9375 179.375 C185.78880537 182.7205784 189.35720745 186.32846223 192.93774414 189.95703125 C195.50074097 192.54171463 198.09929421 195.0209204 200.875 197.375 C204.74826655 200.68915485 208.37764407 204.2291886 212 207.8125 C212.58894043 208.3885498 213.17788086 208.96459961 213.78466797 209.55810547 C215.22973969 210.99976195 216.6200263 212.49591281 218 214 C218 214.66 218 215.32 218 216 C217.06317383 215.97381592 216.12634766 215.94763184 215.16113281 215.9206543 C211.62727975 215.83455314 208.09456838 215.77233326 204.56005859 215.7253418 C203.04132306 215.70046291 201.52270382 215.66654615 200.00439453 215.62280273 C186.96830257 215.25710378 176.83019867 217.28085008 166.4375 225.75 C165.89778564 226.1833667 165.35807129 226.6167334 164.80200195 227.06323242 C163.19013431 228.36243801 161.59431702 229.67935714 160 231 C159.10796875 231.72316406 158.2159375 232.44632813 157.296875 233.19140625 C154.5205836 235.44818204 151.76089533 237.7244183 149 240 C140.82613662 246.69312301 132.61652935 253.33334539 124.28979492 259.83544922 C119.81602741 263.3373184 115.40155429 266.90792696 111 270.5 C105.47457294 275.00925657 99.90483841 279.45272738 94.2824707 283.84033203 C89.86894401 287.29374711 85.52350154 290.82496146 81.1875 294.375 C75.72712559 298.84173822 70.18785659 303.18068295 64.5625 307.4375 C57.96184154 312.43529277 51.54004736 317.61457422 45.17089844 322.90332031 C38.54639964 328.39867805 31.79121032 333.71315932 25 339 C17.6094397 344.76467937 10.26354427 350.57573987 3 356.5 C-2.15759496 360.70516449 -7.33469527 364.88232498 -12.5625 369 C-13.38331055 369.6487207 -13.38331055 369.6487207 -14.22070312 370.31054688 C-18.06587362 373.32738199 -22.00768203 376.18070862 -26 379 C-29.8316907 374.00404164 -33.25739115 368.72574952 -36.75195312 363.4921875 C-37.99279159 361.63578441 -39.2385192 359.78272579 -40.484375 357.9296875 C-41.28155499 356.737183 -42.07843968 355.54448102 -42.875 354.3515625 C-43.59429687 353.27729004 -44.31359375 352.20301758 -45.0546875 351.09619141 C-50 343.2251506 -50 343.2251506 -50 339 C-46.93617261 339.32432407 -46.01029035 339.98901487 -43.859375 342.28515625 C-43.16328125 343.20167969 -42.4671875 344.11820312 -41.75 345.0625 C-41.04359375 345.98160156 -40.3371875 346.90070313 -39.609375 347.84765625 C-38.81273437 348.91306641 -38.81273437 348.91306641 -38 350 C-38.66 348.88625 -39.32 347.7725 -40 346.625 C-42 343.25 -42 343.25 -42 341 C-41.01 340.67 -40.02 340.34 -39 340 C-39.83402344 339.04480469 -40.66804687 338.08960938 -41.52734375 337.10546875 C-44.46193657 333.73835443 -47.3836618 330.36037044 -50.29785156 326.97558594 C-51.3625628 325.73983675 -52.42929434 324.50582209 -53.49902344 323.27441406 C-54.78019079 321.79572198 -56.04689776 320.30453587 -57.3125 318.8125 C-58.03050781 317.97332031 -58.74851562 317.13414062 -59.48828125 316.26953125 C-61 314 -61 314 -61 310 C-62.08834709 308.27098653 -62.08834709 308.27098653 -63.68359375 306.70703125 C-64.27325928 306.08497803 -64.8629248 305.4629248 -65.47045898 304.82202148 C-66.11958252 304.15887939 -66.76870605 303.4957373 -67.4375 302.8125 C-68.10402588 302.11777588 -68.77055176 301.42305176 -69.45727539 300.70727539 C-71.62516498 298.45843249 -73.80994646 296.22725392 -76 294 C-76.7425 293.24235352 -77.485 292.48470703 -78.25 291.70410156 C-80.47259854 289.44195157 -82.70251644 287.18741165 -84.9375 284.9375 C-85.62191162 284.24825439 -86.30632324 283.55900879 -87.01147461 282.84887695 C-91.51223769 278.36337624 -96.18062427 274.13904984 -101 270 C-102.2378264 268.91893807 -103.47482204 267.83692409 -104.7109375 266.75390625 C-111.08690952 261.19407234 -117.47995589 255.70160904 -124.14453125 250.48828125 C-126 249 -126 249 -128 247 C-128 246.01 -128 245.02 -128 244 C-122.70921956 245.57686005 -119.01603437 249.00906251 -114.875 252.5 C-114.12162354 253.127854 -113.36824707 253.75570801 -112.59204102 254.40258789 C-107.38980091 258.76272476 -102.31549967 263.23445826 -97.3359375 267.84765625 C-95.28155454 269.74057433 -93.18948458 271.56489271 -91.0625 273.375 C-85.90855272 277.84743359 -81.16999732 282.75223887 -76.37841797 287.60498047 C-73.05688854 290.96651415 -69.70261797 294.29333665 -66.328125 297.6015625 C-59.50707683 304.31518603 -52.90806091 310.97735168 -46.9921875 318.51171875 C-44.98905022 321.01367649 -42.87222367 323.34339258 -40.6875 325.6875 C-34.58564372 332.36275767 -29.3416109 339.71516348 -24 347 C-19.12473398 343.36467247 -14.27880531 339.69880849 -9.5 335.9375 C-8.90960938 335.4734375 -8.31921875 335.009375 -7.7109375 334.53125 C-2.41631051 330.35536219 2.81276462 326.10089713 8.03710938 321.83764648 C12.88432503 317.88847452 17.78308122 314.0118407 22.7109375 310.1640625 C27.18436708 306.66223753 31.59867202 303.09188836 36 299.5 C41.52339685 294.99240027 47.09184436 290.55157358 52.7109375 286.1640625 C57.18436708 282.66223753 61.59867202 279.09188836 66 275.5 C71.52339685 270.99240027 77.09184436 266.55157358 82.7109375 262.1640625 C87.18436708 258.66223753 91.59867202 255.09188836 96 251.5 C101.52542706 246.99074343 107.09516159 242.54727262 112.7175293 238.15966797 C117.13106448 234.70624625 121.47621217 231.17469801 125.8125 227.625 C153.97493123 204.62105088 153.97493123 204.62105088 167 197 C162.52685902 192.41978915 157.97622306 188.0135514 153.12109375 183.83984375 C150.77508942 181.80491181 148.4826355 179.71709033 146.1875 177.625 C141.91771345 173.77051184 137.51278489 170.12653529 133.04296875 166.5078125 C129.51909397 163.60366923 126.0685202 160.62355864 122.625 157.625 C113.95820684 150.08121246 105.23894007 142.61130065 96.3125 135.375 C91.86096192 131.75165505 87.57617545 127.98036128 83.33203125 124.1171875 C81.24176111 122.21948831 79.13013885 120.35266585 77 118.5 C72.2829558 114.38916228 67.64499139 110.1918215 63 106 C62.32960693 105.4119458 61.65921387 104.8238916 60.96850586 104.21801758 C53.78888132 97.86792025 47.00444818 91.15724956 40.23999023 84.37036133 C38.30890453 82.43389451 36.37250118 80.50286044 34.43554688 78.57226562 C28.41627078 72.55700322 22.42495463 66.56666882 17 60 C16.19429565 59.03042358 16.19429565 59.03042358 15.37231445 58.04125977 C13.73692998 56.05721219 12.1156722 54.06262358 10.5 52.0625 C9.93901611 51.36882324 9.37803223 50.67514648 8.80004883 49.96044922 C7.19761992 47.97556188 5.59848992 45.98805983 4 44 C3.20980469 43.02160156 2.41960937 42.04320312 1.60546875 41.03515625 C0.97253906 40.23980469 0.33960938 39.44445313 -0.3125 38.625 C-1.11107422 37.62339844 -1.11107422 37.62339844 -1.92578125 36.6015625 C-3 35 -3 35 -3 33 C-7.58082914 35.49071699 -11.25058358 38.68596686 -15.125 42.125 C-20.39988958 46.75453351 -25.7365535 51.27402921 -31.19140625 55.69140625 C-34.5029848 58.41344091 -37.75313059 61.20139731 -41 64 C-45.98936093 68.29977994 -51.04221344 72.50485562 -56.15625 76.65625 C-59.47686486 79.39302049 -62.74046782 82.1910295 -66 85 C-70.98940767 89.29972713 -76.04221156 93.50485409 -81.15625 97.65625 C-84.47686486 100.39302049 -87.74046782 103.1910295 -91 106 C-95.98940767 110.29972713 -101.04221156 114.50485409 -106.15625 118.65625 C-110.02641891 121.84594965 -113.82599141 125.11515821 -117.61523438 128.40039062 C-120.19836211 130.63169451 -122.79088862 132.83330018 -125.46044922 134.96142578 C-132.25179967 140.38450631 -138.47830869 146.16688478 -144.58935547 152.32861328 C-146.12380216 153.87379378 -147.66868002 155.40796009 -149.21484375 156.94140625 C-154.9200384 162.64068713 -160.18836043 168.46047666 -165.15576172 174.82470703 C-167 177 -167 177 -170 179 C-169.28300422 173.98102953 -167.09721932 170.68802972 -164.375 166.5 C-162.87790868 164.09646989 -162.87790868 164.09646989 -162.55859375 161.4921875 C-161.82544281 158.2212064 -160.26917968 156.62297736 -158.0625 154.125 C-154.68058327 150.08363976 -152.89928355 147.17088043 -152 142 C-152.721875 142.721875 -153.44375 143.44375 -154.1875 144.1875 C-158.09375 148.09375 -158.09375 148.09375 -162 152 C-162.66 151.67 -163.32 151.34 -164 151 C-163.278125 150.26394531 -162.55625 149.52789062 -161.8125 148.76953125 C-160.87434953 147.78447325 -159.93688514 146.79876152 -159 145.8125 C-158.28457031 145.08836914 -158.28457031 145.08836914 -157.5546875 144.34960938 C-155.31285567 141.96365978 -154.04278434 140.58807491 -153.80078125 137.26171875 C-153.86652344 136.51535156 -153.93226563 135.76898438 -154 135 C-152.1875 133 -152.1875 133 -150 131 C-149.38125 129.8553125 -149.38125 129.8553125 -148.75 128.6875 C-146.14848359 124.69231409 -142.64489001 122.03455632 -139 119 C-137.45021397 117.68018222 -135.90044714 116.36034179 -134.35107422 115.04003906 C-128.77853324 110.30002622 -123.14528089 105.64697828 -117.4375 101.0703125 C-114.05687266 98.19894633 -111.01082491 95.04515481 -107.9296875 91.859375 C-103.23336698 87.03805736 -98.32603837 82.71219808 -93.07421875 78.5078125 C-89.54010879 75.62484097 -86.11560103 72.63233757 -82.6875 69.625 C-77.23653676 64.85497334 -71.65497214 60.3171231 -65.92529297 55.88769531 C-61.57448761 52.5046994 -57.47887012 48.90795159 -53.421875 45.17578125 C-50.86742834 42.88089933 -48.23527893 40.71808866 -45.5625 38.5625 C-41.75912497 35.48663412 -38.09917348 32.31246834 -34.5 29 C-30.03416274 24.88990511 -25.41896833 21.03509412 -20.6953125 17.2265625 C-17.99320684 14.99438826 -15.39882571 12.67736663 -12.8125 10.3125 C-8.72944169 6.58875082 -4.49953499 3.20497604 0 0 Z " fill="#A22225" transform="translate(291,20)"/>
<path d="M0 0 C1.65766798 1.65766798 1.21049503 3.60346405 1.25 5.875 C1.28867187 7.20144531 1.28867187 7.20144531 1.328125 8.5546875 C1 11 1 11 -0.2734375 12.8203125 C-2.77434396 14.52907664 -5.07180718 14.03254188 -7.99609375 13.9140625 C-10.94430163 14.04049637 -12.72088227 15.20433149 -15 17 C-15.33 17.66 -15.66 18.32 -16 19 C-11.71 19 -7.42 19 -3 19 C-2.505 20.485 -2.505 20.485 -2 22 C-1.34 22 -0.68 22 0 22 C0.495 20.515 0.495 20.515 1 19 C3.0625 18.3125 3.0625 18.3125 5 18 C4.98839844 17.07316406 4.97679687 16.14632812 4.96484375 15.19140625 C4.95582031 13.99386719 4.94679688 12.79632813 4.9375 11.5625 C4.92589844 10.36753906 4.91429687 9.17257813 4.90234375 7.94140625 C5 5 5 5 6 4 C8.01964199 3.92755947 10.04167124 3.91622812 12.0625 3.9375 C13.71958984 3.95103516 13.71958984 3.95103516 15.41015625 3.96484375 C16.26480469 3.97644531 17.11945313 3.98804688 18 4 C20.02903697 8.05807395 19.0467948 13.60128877 19 18 C24.28 18.33 29.56 18.66 35 19 C35.84964745 23.24823725 36.16499805 26.71005077 36 31 C33.82052348 33.17947652 28.44108801 32.45337729 25.37109375 32.60546875 C21.89055723 32.4970552 21.89055723 32.4970552 19 34 C18.74016602 38.50378902 18.86884152 41.97447843 21 46 C24.48911599 47.74455799 28.49741795 47.46237266 32.34765625 47.71875 C35 48 35 48 36 49 C36.14001682 53.27051305 36.16665907 56.87965644 35 61 C19.45382004 61.63985802 19.45382004 61.63985802 14 58 C6.84781433 51.18241951 5.84482184 46.85424503 5.37890625 37.08984375 C5.19134766 35.56037109 5.19134766 35.56037109 5 34 C2.70691037 32.85345518 1.20090344 32.80270883 -1.3515625 32.68359375 C-2.62773437 32.62075195 -2.62773437 32.62075195 -3.9296875 32.55664062 C-4.81914062 32.51732422 -5.70859375 32.47800781 -6.625 32.4375 C-7.5221875 32.39431641 -8.419375 32.35113281 -9.34375 32.30664062 C-11.56234283 32.20043139 -13.7810488 32.09838806 -16 32 C-15.99214478 33.26444946 -15.99214478 33.26444946 -15.98413086 34.55444336 C-15.96712174 37.67227936 -15.95456594 40.79009177 -15.94506836 43.90795898 C-15.94002943 45.25920386 -15.93319823 46.61044326 -15.92456055 47.96166992 C-15.91247581 49.90020434 -15.90730172 51.838778 -15.90234375 53.77734375 C-15.89448853 55.52905884 -15.89448853 55.52905884 -15.88647461 57.31616211 C-16 60 -16 60 -17 61 C-18.83115883 61.09851171 -20.66619933 61.12972629 -22.5 61.125 C-23.5003125 61.12757813 -24.500625 61.13015625 -25.53125 61.1328125 C-28 61 -28 61 -29 60 C-29.08758003 58.00035018 -29.10696576 55.9976389 -29.09765625 53.99609375 C-29.09443359 52.78115234 -29.09121094 51.56621094 -29.08789062 50.31445312 C-29.07951172 49.03505859 -29.07113281 47.75566406 -29.0625 46.4375 C-29.05798828 45.15423828 -29.05347656 43.87097656 -29.04882812 42.54882812 C-29.03699545 39.36583978 -29.02051068 36.18294238 -29 33 C-30.2065625 32.814375 -30.2065625 32.814375 -31.4375 32.625 C-32.283125 32.41875 -33.12875 32.2125 -34 32 C-35.18306728 29.63386544 -35.13354608 28.13219264 -35.125 25.5 C-35.12757813 24.7059375 -35.13015625 23.911875 -35.1328125 23.09375 C-35 21 -35 21 -34 19 C-33.34515625 18.87882812 -32.6903125 18.75765625 -32.015625 18.6328125 C-31.35046875 18.42398438 -30.6853125 18.21515625 -30 18 C-29.14989288 16.13997308 -29.14989288 16.13997308 -28.75 13.875 C-27.08037718 8.18557876 -23.88524911 5.2082233 -19 2 C-13.0161317 -0.64671098 -6.45195204 -0.43759296 0 0 Z " fill="#DCDDDF" transform="translate(367,190)"/>
<path d="M0 0 C3.01554584 0.90466375 3.86610806 0.41136228 6.75 -0.6875 C12.44947334 -2.79526543 17.16319983 -2.76408035 22.73828125 -0.234375 C26.93349575 2.18918584 29.34614889 4.30808155 31.5 8.75 C33.16758815 18.05539647 32.591841 28.01059017 32.625 37.4375 C32.62975342 38.58436279 32.63450684 39.73122559 32.6394043 40.9128418 C32.63614136 42.53959839 32.63614136 42.53959839 32.6328125 44.19921875 C32.63168457 45.17205811 32.63055664 46.14489746 32.62939453 47.1472168 C32.51229295 49.50272621 32.17003727 51.49735731 31.5 53.75 C29.52090602 53.77686553 27.54171029 53.79633375 25.5625 53.8125 C24.46035156 53.82410156 23.35820313 53.83570313 22.22265625 53.84765625 C19.5 53.75 19.5 53.75 18.5 52.75 C18.3521327 49.96357785 18.26493029 47.19880502 18.21875 44.41015625 C18.19113586 43.15421913 18.19113586 43.15421913 18.16296387 41.87290955 C18.1040259 39.18617996 18.05129749 36.4993857 18 33.8125 C17.93247175 30.28241337 17.85877245 26.75253591 17.78125 23.22265625 C17.76767456 22.40491226 17.75409912 21.58716827 17.7401123 20.74464417 C17.74913493 16.61420788 17.74913493 16.61420788 16.5 12.75 C14.19 12.75 11.88 12.75 9.5 12.75 C9.17 26.28 8.84 39.81 8.5 53.75 C4.54 53.75 0.58 53.75 -3.5 53.75 C-5.56996487 51.68003513 -4.7097157 47.26707002 -4.74609375 44.41015625 C-4.77902781 42.69075003 -4.81223953 40.97134912 -4.84570312 39.25195312 C-4.89318197 36.52843838 -4.93760872 33.80494583 -4.97680664 31.08129883 C-5.01641758 28.46152116 -5.06798584 25.84219009 -5.12109375 23.22265625 C-5.1295079 22.40491226 -5.13792206 21.58716827 -5.14659119 20.74464417 C-5.06334574 16.2753199 -5.06334574 16.2753199 -7.5 12.75 C-10.58347826 12.58318891 -10.58347826 12.58318891 -13.5 12.75 C-13.52505615 13.95648193 -13.5501123 15.16296387 -13.57592773 16.40600586 C-13.66982523 20.86575661 -13.77008833 25.32534513 -13.87231445 29.78491211 C-13.91573041 31.71814185 -13.95740042 33.65141159 -13.99731445 35.5847168 C-14.05485631 38.35738202 -14.1185962 41.12984457 -14.18359375 43.90234375 C-14.20866249 45.20702858 -14.20866249 45.20702858 -14.23423767 46.53807068 C-14.38612829 52.63612829 -14.38612829 52.63612829 -15.5 53.75 C-17.51964199 53.82244053 -19.54167124 53.83377188 -21.5625 53.8125 C-23.21958984 53.79896484 -23.21958984 53.79896484 -24.91015625 53.78515625 C-25.76480469 53.77355469 -26.61945312 53.76195312 -27.5 53.75 C-28.64696177 51.45607646 -28.61241607 50.21776409 -28.58520508 47.67089844 C-28.57801956 46.82952332 -28.57083405 45.98814819 -28.56343079 45.12127686 C-28.54170052 43.75413544 -28.54170052 43.75413544 -28.51953125 42.359375 C-28.50540695 41.422005 -28.49128265 40.48463501 -28.47673035 39.51885986 C-28.44357567 37.53156179 -28.40721456 35.54431505 -28.36791992 33.55712891 C-28.31297743 30.52633634 -28.28423161 27.49598507 -28.25585938 24.46484375 C-28.22038139 22.5338235 -28.1833227 20.60283152 -28.14453125 18.671875 C-28.14016556 17.76854431 -28.13579987 16.86521362 -28.13130188 15.93450928 C-27.97885768 10.26105615 -27.17036149 7.13026502 -23.5 2.75 C-16.86231674 -2.67003219 -7.70233644 -3.85116822 0 0 Z " fill="#DFE0E1" transform="translate(37.5,197.25)"/>
<path d="M0 0 C0.7031987 0.0028299 1.4063974 0.00565979 2.13090515 0.00857544 C4.36218767 0.01971099 6.59305892 0.04480253 8.82421875 0.0703125 C10.34309313 0.0803509 11.86197385 0.08947524 13.38085938 0.09765625 C17.09127796 0.11962837 20.80145817 0.15411203 24.51171875 0.1953125 C24.53857813 2.34107887 24.55804963 4.48693895 24.57421875 6.6328125 C24.58582031 7.82777344 24.59742188 9.02273437 24.609375 10.25390625 C24.51171875 13.1953125 24.51171875 13.1953125 23.51171875 14.1953125 C21.22183094 14.35419342 18.92728434 14.44669323 16.6328125 14.51171875 C15.60281883 14.5428904 15.60281883 14.5428904 14.55201721 14.57469177 C12.3511894 14.64025393 10.150239 14.69910265 7.94921875 14.7578125 C6.46027361 14.80099142 4.97134102 14.8446055 3.48242188 14.88867188 C-0.17434678 14.9959418 -3.83125443 15.09719022 -7.48828125 15.1953125 C-7.14041417 17.17067995 -7.14041417 17.17067995 -6.48828125 19.1953125 C-4.21898588 20.32996019 -2.90295764 20.33300522 -0.3828125 20.37109375 C0.43638672 20.39494141 1.25558594 20.41878906 2.09960938 20.44335938 C3.81290946 20.48583789 5.52652168 20.51735097 7.24023438 20.53710938 C13.93837766 20.76194947 18.08021329 22.25622038 23.25390625 26.6875 C26.12047582 30.18669182 27.42307671 32.67456854 27.51171875 37.1953125 C26.85975953 42.76660042 25.81196961 47.33611301 21.51171875 51.1953125 C14.48241474 55.75346557 7.18333773 55.72621399 -0.9296875 55.55200195 C-3.01196302 55.50730415 -5.09308179 55.49045995 -7.17578125 55.47851562 C-17.31989835 55.3636954 -17.31989835 55.3636954 -18.48828125 54.1953125 C-18.58701941 52.19731678 -18.61799924 50.19574092 -18.61328125 48.1953125 C-18.61585938 47.1021875 -18.6184375 46.0090625 -18.62109375 44.8828125 C-18.48828125 42.1953125 -18.48828125 42.1953125 -17.48828125 41.1953125 C-15.34441468 41.03672408 -13.19561287 40.94401952 -11.046875 40.87890625 C-9.08911133 40.81606445 -9.08911133 40.81606445 -7.09179688 40.75195312 C-5.70312795 40.71213642 -4.31445603 40.67242425 -2.92578125 40.6328125 C-1.53318942 40.58963261 -0.14061097 40.5460185 1.25195312 40.50195312 C4.67176676 40.39545374 8.09165638 40.29344327 11.51171875 40.1953125 C11.51171875 38.8753125 11.51171875 37.5553125 11.51171875 36.1953125 C10.37734375 36.15792969 9.24296875 36.12054688 8.07421875 36.08203125 C-11.59443403 35.28612679 -11.59443403 35.28612679 -18.48828125 28.1953125 C-21.11945444 23.38661667 -22.07295582 19.65227512 -21.48828125 14.1953125 C-19.66160824 8.30936612 -17.39763633 5.63186106 -12.48828125 2.1953125 C-8.25922226 0.06015458 -4.70492216 -0.03748942 0 0 Z " fill="#DEDFE1" transform="translate(250.48828125,195.8046875)"/>
<path d="M0 0 C1.0209375 0.59167969 1.0209375 0.59167969 2.0625 1.1953125 C4.01576719 2.1245023 4.01576719 2.1245023 5.9375 1.0546875 C6.618125 0.66539062 7.29875 0.27609375 8 -0.125 C9.65 -0.455 11.3 -0.785 13 -1.125 C13.495 19.17 13.495 19.17 14 39.875 C11.525 40.37 11.525 40.37 9 40.875 C8 39.875 7 38.875 6 37.875 C3.34859531 38.07895421 1.44926228 38.63742715 -0.8984375 39.87890625 C-7.26257067 42.89536342 -14.51836926 42.1496855 -21 39.875 C-26.691539 36.76076168 -30.35617578 32.77698104 -33 26.875 C-34.72693502 20.20098044 -33.98972488 14.06946422 -31 7.875 C-23.6816375 -2.17831756 -11.28768607 -5.49483068 0 0 Z M-19 13.875 C-20.56935594 17.01371188 -20.35201103 19.41355822 -20 22.875 C-17.59475502 26.12915498 -15.89383177 27.57071685 -12.0625 28.875 C-8.18954927 28.875 -6.21402838 28.01768559 -3 25.875 C-0.84417246 23.23237269 0 21.79347831 0 18.375 C-1.41312637 14.84218408 -2.94220265 13.15208313 -6 10.875 C-11.01333959 9.79130841 -14.9426343 10.67828763 -19 13.875 Z " fill="#DEDFE0" transform="translate(110,210.125)"/>
<path d="M0 0 C0.68578125 0.3815625 1.3715625 0.763125 2.078125 1.15625 C3.7796875 2.084375 3.7796875 2.084375 5.515625 3.03125 C7.59158162 2.23027406 7.59158162 2.23027406 9.515625 1.03125 C11.17303215 0.65456656 12.83907771 0.31067455 14.515625 0.03125 C16.14619457 3.29238913 15.65734023 6.88604317 15.6484375 10.46875 C15.64939423 11.30462646 15.65035095 12.14050293 15.65133667 13.00170898 C15.65201768 14.77034582 15.65016891 16.53898515 15.64599609 18.30761719 C15.64064671 21.02023921 15.64594375 23.73269565 15.65234375 26.4453125 C15.65168295 28.1614587 15.65040176 29.8776048 15.6484375 31.59375 C15.65046173 32.40835693 15.65248596 33.22296387 15.65457153 34.06225586 C15.63058464 39.80133072 15.63058464 39.80133072 14.515625 42.03125 C9.765625 41.28125 9.765625 41.28125 7.515625 39.03125 C5.02835346 39.25736559 2.8587032 39.89632399 0.5390625 40.80859375 C-6.86481561 43.64718306 -13.38156667 43.60594822 -20.734375 40.46875 C-26.00139661 37.56280704 -29.60081496 32.68193012 -31.484375 27.03125 C-32.03957189 20.42227164 -32.14611362 13.77848214 -28.484375 8.03125 C-21.04892679 -0.11233613 -10.89583195 -4.24868919 0 0 Z M-17.484375 16.03125 C-18.61583955 19.92065939 -18.87062041 22.06563646 -17.359375 25.84375 C-15.13606666 28.43760973 -13.80676994 29.25860001 -10.484375 30.03125 C-5.65775111 29.83014067 -2.7697579 28.59823715 0.515625 25.03125 C1.76400881 21.62596004 1.76400881 21.62596004 1.515625 18.03125 C-0.25078672 15.22935554 -1.51487322 13.51600089 -4.484375 12.03125 C-10.16727586 11.56543845 -13.56373016 11.39776064 -17.484375 16.03125 Z " fill="#DEDFE0" transform="translate(207.484375,208.96875)"/>
<path d="M0 0 C1.15628906 0.01353516 2.31257813 0.02707031 3.50390625 0.04101562 C6.33643004 0.07612956 9.16796307 0.12531 12 0.1875 C13.57170996 3.33091993 13.23175783 6.74521451 13 10.1875 C12.67 11.1775 12.34 12.1675 12 13.1875 C1.605 13.6825 1.605 13.6825 -9 14.1875 C-5.720625 14.3421875 -5.720625 14.3421875 -2.375 14.5 C4.07394417 14.80419548 8.71112239 15.83676083 13.3125 20.5625 C15.93635649 24.64405454 16.22902726 26.90494736 15.375 31.6875 C13.62115246 36.1518392 11.28138717 38.70892439 7.26831055 41.30981445 C4.14017863 42.52019377 1.43121435 42.42916122 -1.91796875 42.41796875 C-2.57581863 42.41751053 -3.23366852 42.41705231 -3.91145325 42.4165802 C-5.29572362 42.41356911 -6.67999094 42.40571711 -8.06420898 42.39331055 C-10.19071335 42.37497229 -12.31678392 42.37280157 -14.44335938 42.37304688 C-24.85245183 42.33504817 -24.85245183 42.33504817 -26 41.1875 C-26.09851171 39.35634117 -26.12972629 37.52130067 -26.125 35.6875 C-26.12757813 34.6871875 -26.13015625 33.686875 -26.1328125 32.65625 C-26 30.1875 -26 30.1875 -25 29.1875 C-23.31816052 28.95462992 -21.6287584 28.77485834 -19.9375 28.625 C-18.55884766 28.49931641 -18.55884766 28.49931641 -17.15234375 28.37109375 C-16.44207031 28.31050781 -15.73179687 28.24992187 -15 28.1875 C-16.093125 27.61 -17.18625 27.0325 -18.3125 26.4375 C-22.10769651 24.2217186 -24.30708019 22.58424317 -25.5703125 18.21484375 C-26.5845948 12.83914759 -25.71877383 9.54114096 -22.91015625 4.9140625 C-16.44713725 -0.92776653 -8.15280611 -0.18210735 0 0 Z " fill="#DBDCDE" transform="translate(156,208.8125)"/>
<path d="M0 0 C5.36627399 3.09993498 8.65245385 6.90852373 10.9609375 12.73046875 C12.48185943 19.37515225 10.91743291 26.31954272 7.6015625 32.1640625 C4.26695077 36.88623079 -1.03905043 39.99990861 -6.62890625 41.2890625 C-14.15537238 42.41476004 -20.59042381 41.49661764 -26.875 37.0625 C-31.46242492 33.32493667 -35.13813122 28.95009564 -35.765625 22.83203125 C-35.9109371 15.99025342 -34.42400388 11.01428667 -31 5.125 C-22.37223139 -3.06031894 -10.85257261 -5.03469863 0 0 Z M-21.5625 15.8125 C-22.80651278 18.19858611 -22.80651278 18.19858611 -22.5625 20.8125 C-20.83731974 24.19650743 -19.4547909 26.27242919 -16.1875 28.25 C-12.84941063 28.96530486 -10.83203662 28.83423019 -7.5625 27.8125 C-4.67225086 25.50030069 -2.94077665 23.75819162 -1.5625 20.3125 C-1.5625 16.96414169 -2.51203993 15.42860423 -4.5625 12.8125 C-7.549653 10.48915878 -10.85993753 10.33216255 -14.59375 10.4296875 C-18.05922584 11.10353003 -19.54329973 13.05904508 -21.5625 15.8125 Z " fill="#DEDEE0" transform="translate(317.5625,210.1875)"/>
<path d="M0 0 C5.29078044 1.57686005 8.98396563 5.00906251 13.125 8.5 C14.2550647 9.44178101 14.2550647 9.44178101 15.40795898 10.40258789 C20.61019909 14.76272476 25.68450033 19.23445826 30.6640625 23.84765625 C32.71844546 25.74057433 34.81051542 27.56489271 36.9375 29.375 C42.09144728 33.84743359 46.83000268 38.75223887 51.62158203 43.60498047 C54.94311146 46.96651415 58.29738203 50.29333665 61.671875 53.6015625 C68.49437296 60.31661299 75.09316985 66.98089985 81.01171875 74.515625 C82.9949186 76.99365074 85.08751433 79.30276314 87.25 81.625 C93.68011836 88.66044034 99.28946293 96.37975742 105 104 C103.515 104.495 103.515 104.495 102 105 C100.5 103.6875 100.5 103.6875 99 102 C99 101.01 99 100.02 99 99 C94.17557816 100.26946514 94.17557816 100.26946514 91 104 C93.97 104.66 96.94 105.32 100 106 C100.33 107.65 100.66 109.3 101 111 C100.34 111 99.68 111 99 111 C99 111.99 99 112.98 99 114 C101.31 114.33 103.62 114.66 106 115 C106 114.34 106 113.68 106 113 C106.66 113 107.32 113 108 113 C108.99 111.02 108.99 111.02 110 109 C110.66 109 111.32 109 112 109 C112.28875 109.61875 112.5775 110.2375 112.875 110.875 C113.93720042 113.13325765 113.93720042 113.13325765 116 115 C115.05125 115.226875 114.1025 115.45375 113.125 115.6875 C109.86133732 116.68822987 109.86133732 116.68822987 108.625 119.375 C107.84558632 122.19880762 107.84558632 122.19880762 108 126 C108.66 126.33 109.32 126.66 110 127 C109.67 125.68 109.34 124.36 109 123 C109.99 123 110.98 123 112 123 C112.66 121.02 113.32 119.04 114 117 C115.65 117 117.3 117 119 117 C119.33 116.34 119.66 115.68 120 115 C120.66 115 121.32 115 122 115 C122.33 114.34 122.66 113.68 123 113 C123.99 113.99 124.98 114.98 126 116 C118.23739308 122.71360599 110.4175201 129.11279656 102 135 C98.1683093 130.00404164 94.74260885 124.72574952 91.24804688 119.4921875 C90.00720841 117.63578441 88.7614808 115.78272579 87.515625 113.9296875 C86.71844501 112.737183 85.92156032 111.54448102 85.125 110.3515625 C84.40570313 109.27729004 83.68640625 108.20301758 82.9453125 107.09619141 C78 99.2251506 78 99.2251506 78 95 C81.06382739 95.32432407 81.98970965 95.98901487 84.140625 98.28515625 C84.83671875 99.20167969 85.5328125 100.11820312 86.25 101.0625 C87.30960938 102.44115234 87.30960938 102.44115234 88.390625 103.84765625 C88.92171875 104.55792969 89.4528125 105.26820313 90 106 C89.01 104.329375 89.01 104.329375 88 102.625 C86 99.25 86 99.25 86 97 C86.99 96.67 87.98 96.34 89 96 C88.16597656 95.04480469 87.33195312 94.08960938 86.47265625 93.10546875 C83.53806343 89.73835443 80.6163382 86.36037044 77.70214844 82.97558594 C76.6374372 81.73983675 75.57070566 80.50582209 74.50097656 79.27441406 C73.21980921 77.79572198 71.95310224 76.30453587 70.6875 74.8125 C69.96949219 73.97332031 69.25148438 73.13414062 68.51171875 72.26953125 C67 70 67 70 67 66 C65.91165291 64.27098653 65.91165291 64.27098653 64.31640625 62.70703125 C63.72674072 62.08497803 63.1370752 61.4629248 62.52954102 60.82202148 C61.88041748 60.15887939 61.23129395 59.4957373 60.5625 58.8125 C59.89597412 58.11777588 59.22944824 57.42305176 58.54272461 56.70727539 C56.37483502 54.45843249 54.19005354 52.22725392 52 50 C50.88625 48.86353027 50.88625 48.86353027 49.75 47.70410156 C47.52740146 45.44195157 45.29748356 43.18741165 43.0625 40.9375 C42.37808838 40.24825439 41.69367676 39.55900879 40.98852539 38.84887695 C36.48776231 34.36337624 31.81937573 30.13904984 27 26 C25.7621736 24.91893807 24.52517796 23.83692409 23.2890625 22.75390625 C16.91309048 17.19407234 10.52004411 11.70160904 3.85546875 6.48828125 C2 5 2 5 0 3 C0 2.01 0 1.02 0 0 Z " fill="#A73C3E" transform="translate(163,264)"/>
<path d="M0 0 C0.93423645 3.01031744 1.04449911 3.86650268 0 7 C0.66 7.33 1.32 7.66 2 8 C1.67 8.99 1.34 9.98 1 11 C1.99 11 2.98 11 4 11 C4.33 10.01 4.66 9.02 5 8 C6.32 8 7.64 8 9 8 C7.55714257 11.41175662 5.81660771 13.24848725 3 15.625 C-8.25337179 25.51879412 -19.26183357 36.10640031 -28.37109375 48.03125 C-30 50 -30 50 -33 52 C-32.28300422 46.98102953 -30.09721932 43.68802972 -27.375 39.5 C-25.87834294 37.09494138 -25.87834294 37.09494138 -25.55078125 34.484375 C-24.83626468 31.26144917 -23.35825728 29.71475594 -21.1875 27.25 C-18.5239155 24.0743684 -16.55240195 21.38915314 -15.125 17.5 C-13.06146855 12.18971953 -9.16796147 8.87186037 -5.046875 5.06640625 C-2.76541958 3.24794152 -2.76541958 3.24794152 -3 1 C-2.01 0.67 -1.02 0.34 0 0 Z " fill="#A0272B" transform="translate(154,147)"/>
<path d="M0 0 C5.29078044 1.57686005 8.98396563 5.00906251 13.125 8.5 C14.2550647 9.44178101 14.2550647 9.44178101 15.40795898 10.40258789 C20.61019909 14.76272476 25.68450033 19.23445826 30.6640625 23.84765625 C32.71844546 25.74057433 34.81051542 27.56489271 36.9375 29.375 C42.092252 33.8481319 46.83219405 38.75340365 51.6237793 43.60766602 C53.73949833 45.74815664 55.87029723 47.87342915 58 50 C59.32951296 51.32934121 60.6589315 52.65877684 61.98828125 53.98828125 C62.69404297 54.69404297 63.39980469 55.39980469 64.12695312 56.12695312 C67.41796875 59.41796875 70.70898438 62.70898438 74 66 C73.67 66.66 73.34 67.32 73 68 C72.34 67.67 71.68 67.34 71 67 C71.2784375 68.423125 71.2784375 68.423125 71.5625 69.875 C72 73 72 73 71 75 C67 70.5 67 70.5 67 66 C65.91165291 64.27098653 65.91165291 64.27098653 64.31640625 62.70703125 C63.72674072 62.08497803 63.1370752 61.4629248 62.52954102 60.82202148 C61.88041748 60.15887939 61.23129395 59.4957373 60.5625 58.8125 C59.89597412 58.11777588 59.22944824 57.42305176 58.54272461 56.70727539 C56.37483502 54.45843249 54.19005354 52.22725392 52 50 C50.88625 48.86353027 50.88625 48.86353027 49.75 47.70410156 C47.52740146 45.44195157 45.29748356 43.18741165 43.0625 40.9375 C42.37808838 40.24825439 41.69367676 39.55900879 40.98852539 38.84887695 C36.48776231 34.36337624 31.81937573 30.13904984 27 26 C25.7621736 24.91893807 24.52517796 23.83692409 23.2890625 22.75390625 C16.91309048 17.19407234 10.52004411 11.70160904 3.85546875 6.48828125 C2 5 2 5 0 3 C0 2.01 0 1.02 0 0 Z " fill="#A9585A" transform="translate(163,264)"/>
<path d="M0 0 C0.495 0.99 0.495 0.99 1 2 C0.34 2 -0.32 2 -1 2 C-1.04125 2.556875 -1.0825 3.11375 -1.125 3.6875 C-2 6 -2 6 -4.9375 8.4375 C-8.07525386 11.06296752 -8.61416676 12.33744073 -10 16 C-11.8125 17 -11.8125 17 -14 18 C-15.68873879 19.64429829 -17.35305515 21.31384218 -19 23 C-21 24.66666667 -23 26.33333333 -25 28 C-25.78375 28.78375 -26.5675 29.5675 -27.375 30.375 C-32.26853196 35.26853196 -37.54783234 39.74049401 -43 44 C-42.34 44.66 -41.68 45.32 -41 46 C-48.33333333 53.33333333 -55.66666667 60.66666667 -63 68 C-63.66 67.67 -64.32 67.34 -65 67 C-64.278125 66.26394531 -63.55625 65.52789062 -62.8125 64.76953125 C-61.87434953 63.78447325 -60.93688514 62.79876152 -60 61.8125 C-59.52304688 61.32974609 -59.04609375 60.84699219 -58.5546875 60.34960938 C-56.31285567 57.96365978 -55.04278434 56.58807491 -54.80078125 53.26171875 C-54.86652344 52.51535156 -54.93226563 51.76898438 -55 51 C-53.1875 49 -53.1875 49 -51 47 C-50.5875 46.236875 -50.175 45.47375 -49.75 44.6875 C-47.14848359 40.69231409 -43.64489001 38.03455632 -40 35 C-38.45021397 33.68018222 -36.90044714 32.36034179 -35.35107422 31.04003906 C-29.77853324 26.30002622 -24.14528089 21.64697828 -18.4375 17.0703125 C-15.80867598 14.83749723 -13.40985982 12.46678564 -11 10 C-9.43859062 8.41559114 -7.87613218 6.83221525 -6.3125 5.25 C-5.16201172 4.08210938 -5.16201172 4.08210938 -3.98828125 2.890625 C-2 1 -2 1 0 0 Z " fill="#C27578" transform="translate(192,104)"/>
<path d="M0 0 C4.60621207 1.41983598 6.93535533 3.68902356 10.125 7.25 C10.59583008 7.77505127 11.06666016 8.30010254 11.55175781 8.84106445 C16.54743994 14.48565486 21.17975606 20.41470043 25.76611328 26.39306641 C27.5606707 28.73018096 29.37492841 31.05184487 31.1875 33.375 C32.12537819 34.58303982 33.06305076 35.79123955 34 37 C33.01 37.33 32.02 37.66 31 38 C29.5 36.6875 29.5 36.6875 28 35 C28 34.01 28 33.02 28 32 C23.92035719 33.30155006 23.92035719 33.30155006 20 35 C19.9175 34.27039063 19.835 33.54078125 19.75 32.7890625 C18.83182405 29.37459569 17.44332768 27.91164923 15 25.375 C14.195625 24.50746094 13.39125 23.63992188 12.5625 22.74609375 C11.716875 21.83988281 10.87125 20.93367188 10 20 C-0.14756795 9.0016451 -0.14756795 9.0016451 0 0 Z " fill="#9F252A" transform="translate(234,331)"/>
<path d="M0 0 C0.66 0 1.32 0 2 0 C2.33 0.99 2.66 1.98 3 3 C2.34 3 1.68 3 1 3 C1 3.99 1 4.98 1 6 C3.31 6.33 5.62 6.66 8 7 C8 6.34 8 5.68 8 5 C8.66 5 9.32 5 10 5 C10.66 3.68 11.32 2.36 12 1 C12.66 1 13.32 1 14 1 C14.28875 1.61875 14.5775 2.2375 14.875 2.875 C15.93720042 5.13325765 15.93720042 5.13325765 18 7 C16.576875 7.3403125 16.576875 7.3403125 15.125 7.6875 C11.86133732 8.68822987 11.86133732 8.68822987 10.625 11.375 C9.84558632 14.19880762 9.84558632 14.19880762 10 18 C10.66 18.33 11.32 18.66 12 19 C11.67 17.68 11.34 16.36 11 15 C11.99 15 12.98 15 14 15 C14.66 13.02 15.32 11.04 16 9 C17.65 9 19.3 9 21 9 C21.33 8.34 21.66 7.68 22 7 C22.66 7 23.32 7 24 7 C24.33 6.34 24.66 5.68 25 5 C25.99 5.99 26.98 6.98 28 8 C20.23739308 14.71360599 12.4175201 21.11279656 4 27 C4 24 4 24 5 23 C4.01 22.34 3.02 21.68 2 21 C1.34 20.34 0.68 19.68 0 19 C0.375 15.375 0.375 15.375 1 12 C1.66 12 2.32 12 3 12 C1.02 9.03 -0.96 6.06 -3 3 C-2.34 3 -1.68 3 -1 3 C-0.67 2.01 -0.34 1.02 0 0 Z " fill="#A42F32" transform="translate(261,372)"/>
<path d="M0 0 C0.99 0.33 1.98 0.66 3 1 C2.67 2.98 2.34 4.96 2 7 C3.98 7.66 5.96 8.32 8 9 C7.67 10.32 7.34 11.64 7 13 C6.01 13 5.02 13 4 13 C4.061875 13.78375 4.12375 14.5675 4.1875 15.375 C4.0946875 16.674375 4.0946875 16.674375 4 18 C1 20 1 20 -3 20 C-3.33 20.66 -3.66 21.32 -4 22 C-4.99 22 -5.98 22 -7 22 C-7.33 18.7 -7.66 15.4 -8 12 C-9.98 12.33 -11.96 12.66 -14 13 C-9.55618306 8.41283413 -4.79771501 4.21237287 0 0 Z " fill="#A02023" transform="translate(162,136)"/>
<path d="M0 0 C1.2065625 0.0309375 1.2065625 0.0309375 2.4375 0.0625 C2.4375 1.0525 2.4375 2.0425 2.4375 3.0625 C3.4275 3.3925 4.4175 3.7225 5.4375 4.0625 C5.4375 4.7225 5.4375 5.3825 5.4375 6.0625 C6.38625 5.8975 7.335 5.7325 8.3125 5.5625 C11.4375 5.0625 11.4375 5.0625 13.4375 5.0625 C13.7675 4.4025 14.0975 3.7425 14.4375 3.0625 C17 2.4375 17 2.4375 19.4375 2.0625 C19.251875 2.619375 19.06625 3.17625 18.875 3.75 C18.36198835 6.461633 18.7734276 8.40621039 19.4375 11.0625 C18.1175 12.0525 16.7975 13.0425 15.4375 14.0625 C15.4375 12.7425 15.4375 11.4225 15.4375 10.0625 C14.65375 10.84625 13.87 11.63 13.0625 12.4375 C11.52083333 13.97916667 9.97916667 15.52083333 8.4375 17.0625 C7.7775 17.0625 7.1175 17.0625 6.4375 17.0625 C6.4375 16.4025 6.4375 15.7425 6.4375 15.0625 C5.1175 15.0625 3.7975 15.0625 2.4375 15.0625 C2.7675 12.7525 3.0975 10.4425 3.4375 8.0625 C0.4675 7.0725 -2.5025 6.0825 -5.5625 5.0625 C-3.06867284 0.07484568 -3.06867284 0.07484568 0 0 Z " fill="#A01C1E" transform="translate(259.5625,362.9375)"/>
<path d="M0 0 C5.29080935 1.57686867 8.98391245 5.00908987 13.125 8.5 C14.25397705 9.44069336 14.25397705 9.44069336 15.40576172 10.40039062 C20.61964672 14.76965527 25.70557894 19.25023347 30.6875 23.8828125 C32.7781072 25.79684815 34.92385257 27.59100551 37.125 29.375 C39.96934023 31.9720063 40.38658642 32.48409287 41 36 C36.69891236 36 34.92113832 33.4048153 32 30.5625 C26.21743244 25.07728018 20.20812269 20.00051526 14 15 C11.61292309 13.07681396 9.24014555 11.13757679 6.875 9.1875 C6.30587891 8.73109131 5.73675781 8.27468262 5.15039062 7.80444336 C2.85544299 5.90029694 1.18964873 4.50829278 0.1328125 1.67578125 C0.08898437 1.12277344 0.04515625 0.56976563 0 0 Z " fill="#B36769" transform="translate(163,264)"/>
<path d="M0 0 C0.66 0 1.32 0 2 0 C1.67 1.98 1.34 3.96 1 6 C1.99 6.33 2.98 6.66 4 7 C4 7.99 4 8.98 4 10 C3.36191406 10.10957031 2.72382813 10.21914063 2.06640625 10.33203125 C1.24011719 10.49058594 0.41382813 10.64914062 -0.4375 10.8125 C-1.26121094 10.96332031 -2.08492188 11.11414063 -2.93359375 11.26953125 C-3.61550781 11.51058594 -4.29742187 11.75164062 -5 12 C-6.33333333 15 -6.33333333 15 -5 18 C-7 18 -9 18 -11 18 C-11.33 18.99 -11.66 19.98 -12 21 C-13.65 21 -15.3 21 -17 21 C-17.1546875 22.175625 -17.1546875 22.175625 -17.3125 23.375 C-18 26 -18 26 -21 28 C-21 28.66 -21 29.32 -21 30 C-21.99 29.67 -22.98 29.34 -24 29 C-23.22986708 20.99061767 -23.22986708 20.99061767 -20 18 C-18.68 18 -17.36 18 -16 18 C-16 17.01 -16 16.02 -16 15 C-15.01 15 -14.02 15 -13 15 C-12.5875 14.2575 -12.175 13.515 -11.75 12.75 C-9.96012746 9.93734315 -9.26798797 9.42989454 -6.4375 8 C-2.75119658 5.85524164 -2.07685003 4.9843451 -1 1 C-0.67 0.67 -0.34 0.34 0 0 Z " fill="#9D1F21" transform="translate(294,361)"/>
<path d="M0 0 C0.33 0 0.66 0 1 0 C1.33 1.65 1.66 3.3 2 5 C2.66 5 3.32 5 4 5 C3.67 4.01 3.34 3.02 3 2 C3.99 2.33 4.98 2.66 6 3 C5.88431387 6.81764222 4.64857088 8.58653137 2 11.125 C1.37609375 11.70894531 0.7521875 12.29289063 0.109375 12.89453125 C-3.22799547 16.22572141 -6.06671426 19.94644727 -8.984375 23.64453125 C-11 26 -11 26 -14 28 C-13.28300422 22.98102953 -11.09721932 19.68802972 -8.375 15.5 C-6.88358096 13.08812068 -6.88358096 13.08812068 -6.5 10.45703125 C-5.90831896 7.54947365 -4.81954244 6.01004095 -3 3.6875 C-2.46375 2.99011719 -1.9275 2.29273438 -1.375 1.57421875 C-0.92125 1.05472656 -0.4675 0.53523437 0 0 Z " fill="#B14F51" transform="translate(135,171)"/>
<path d="M0 0 C0.33 0.66 0.66 1.32 1 2 C2.32 1.34 3.64 0.68 5 0 C5 1.32 5 2.64 5 4 C5.66 3.67 6.32 3.34 7 3 C7.99 3.33 8.98 3.66 10 4 C10.33 4.99 10.66 5.98 11 7 C7.7 10.3 4.4 13.6 1 17 C0.01 16.01 -0.98 15.02 -2 14 C-2 14.66 -2 15.32 -2 16 C-2.66 16 -3.32 16 -4 16 C-4.33 16.66 -4.66 17.32 -5 18 C-5.1953125 11.9453125 -5.1953125 11.9453125 -5 10 C-4.34 9.34 -3.68 8.68 -3 8 C-2.30643577 5.67451993 -1.63850788 3.34119555 -1 1 C-0.67 0.67 -0.34 0.34 0 0 Z " fill="#A83437" transform="translate(141,160)"/>
<path d="M0 0 C3.01554584 0.90466375 3.86610806 0.41136228 6.75 -0.6875 C11.5598508 -2.50223502 15.53009702 -2.51385678 20.5 -1.25 C21.85192984 -0.62190134 23.19164778 0.03555148 24.5 0.75 C24.17 1.74 23.84 2.73 23.5 3.75 C22.571875 3.255 22.571875 3.255 21.625 2.75 C17.22834914 1.34307172 13.07924541 1.22104426 8.5 1.75 C5.70102057 3.21111016 5.70102057 3.21111016 3.5 4.75 C1.08609953 4.52369683 -0.55875527 3.72225446 -2.75 2.6875 C-9.21559696 0.48331922 -15.14978383 1.93565252 -21.5 3.75 C-21.5 4.41 -21.5 5.07 -21.5 5.75 C-22.16 5.75 -22.82 5.75 -23.5 5.75 C-24.16 7.4 -24.82 9.05 -25.5 10.75 C-26.3125 9.0625 -26.3125 9.0625 -26.5 6.75 C-23.08955539 2.63740503 -19.33445245 -0.30518252 -14.25 -2 C-9.38362256 -2.44239795 -4.4073666 -2.2036833 0 0 Z " fill="#C2C2C2" transform="translate(37.5,197.25)"/>
<path d="M0 0 C0.68578125 0.3815625 1.3715625 0.763125 2.078125 1.15625 C3.7796875 2.084375 3.7796875 2.084375 5.515625 3.03125 C7.59158162 2.23027406 7.59158162 2.23027406 9.515625 1.03125 C11.17303215 0.65456656 12.83907771 0.31067455 14.515625 0.03125 C13.515625 3.03125 13.515625 3.03125 11.203125 4.71875 C8.515625 6.03125 8.515625 6.03125 4.515625 6.03125 C3.58621094 5.54398438 2.65679687 5.05671875 1.69921875 4.5546875 C-4.42306469 1.62500585 -13.03858327 1.81055218 -19.484375 4.03125 C-24.33657736 7.26605157 -27.71654485 11.39868947 -29.359375 17.03125 C-29.400625 17.69125 -29.441875 18.35125 -29.484375 19.03125 C-29.814375 19.03125 -30.144375 19.03125 -30.484375 19.03125 C-30.9440748 13.28500254 -30.15938204 10.47994274 -26.484375 6.03125 C-19.42173895 -0.97333699 -9.57975994 -3.73550388 0 0 Z " fill="#C2C3C5" transform="translate(207.484375,208.96875)"/>
<path d="M0 0 C3.6467844 2.10755722 6.33825443 4.0703666 8.4375 7.8125 C9.1875 11.125 9.1875 11.125 9.4375 13.8125 C6.4375 10.0625 6.4375 10.0625 6.4375 7.8125 C5.4475 7.8125 4.4575 7.8125 3.4375 7.8125 C3.4375 6.8225 3.4375 5.8325 3.4375 4.8125 C2.48875 4.503125 1.54 4.19375 0.5625 3.875 C-2.5625 2.8125 -2.5625 2.8125 -4.5625 1.8125 C-15.57066287 0.99728955 -15.57066287 0.99728955 -25.5625 4.8125 C-27.75148486 7.01679245 -29.6569311 9.36416844 -31.5625 11.8125 C-32.2225 12.4725 -32.8825 13.1325 -33.5625 13.8125 C-33.10481166 8.89235036 -32.16518238 6.23944178 -28.5625 2.8125 C-19.79883026 -3.32206881 -9.8014838 -4.54708011 0 0 Z " fill="#B7B8B9" transform="translate(317.5625,210.1875)"/>
<path d="M0 0 C5.94 0 11.88 0 18 0 C18 0.66 18 1.32 18 2 C15.33821779 3.3308911 13.31260604 3.11268993 10.3359375 3.09765625 C9.21445313 3.09443359 8.09296875 3.09121094 6.9375 3.08789062 C5.761875 3.07951172 4.58625 3.07113281 3.375 3.0625 C2.19164062 3.05798828 1.00828125 3.05347656 -0.2109375 3.04882812 C-3.14064639 3.03701478 -6.07032941 3.0190789 -9 3 C-9 6.63 -9 10.26 -9 14 C0.57 14 10.14 14 20 14 C20 14.33 20 14.66 20 15 C15.74585377 15.02465622 11.49174502 15.04283899 7.23754883 15.05493164 C5.78929927 15.05997101 4.34105483 15.06680253 2.89282227 15.07543945 C0.81525412 15.08752247 -1.26224697 15.09323211 -3.33984375 15.09765625 C-4.59144287 15.10289307 -5.84304199 15.10812988 -7.13256836 15.11352539 C-10 15 -10 15 -11 14 C-11.09851171 12.16884117 -11.12972629 10.33380067 -11.125 8.5 C-11.12757813 7.4996875 -11.13015625 6.499375 -11.1328125 5.46875 C-11 3 -11 3 -10 2 C-8.31816052 1.76712992 -6.6287584 1.58735834 -4.9375 1.4375 C-3.55884766 1.31181641 -3.55884766 1.31181641 -2.15234375 1.18359375 C-1.44207031 1.12300781 -0.73179687 1.06242188 0 1 C0 0.67 0 0.34 0 0 Z " fill="#EEEEEF" transform="translate(141,236)"/>
<path d="M0 0 C4.13201383 1.35085068 6.38690329 3.06146461 9.25 6.3125 C9.93578125 7.07175781 10.6215625 7.83101563 11.328125 8.61328125 C13.10529642 11.15031803 13.63326927 12.95289911 14 16 C8.82356347 16 6.87046518 14.30887214 2.9296875 11.15625 C0.2193883 8.12773753 -0.03803467 5.69080362 -0.09765625 1.72265625 C-0.06542969 1.15417969 -0.03320312 0.58570313 0 0 Z " fill="#AB4A4C" transform="translate(234,331)"/>
<path d="M0 0 C1.15224028 0.92961422 2.29659176 1.8690125 3.4375 2.8125 C4.07558594 3.33457031 4.71367187 3.85664063 5.37109375 4.39453125 C7 6 7 6 8 9 C7.0527002 8.98428955 6.10540039 8.9685791 5.12939453 8.95239258 C1.56960427 8.90085499 -1.98978183 8.86345325 -5.54980469 8.83520508 C-7.08209543 8.82024256 -8.61434429 8.79986503 -10.14648438 8.77368164 C-18.81984696 8.62931431 -26.82542016 8.6503608 -35 12 C-35 10 -35 10 -33 8 C-29.875 7.875 -29.875 7.875 -27 8 C-27 7.34 -27 6.68 -27 6 C-17.1 6 -7.2 6 3 6 C2.34 5.67 1.68 5.34 1 5 C0.375 2.4375 0.375 2.4375 0 0 Z " fill="#A3484B" transform="translate(501,227)"/>
<path d="M0 0 C1.11503906 0.00322266 2.23007813 0.00644531 3.37890625 0.00976562 C4.53777344 0.01814453 5.69664062 0.02652344 6.890625 0.03515625 C8.06496094 0.03966797 9.23929688 0.04417969 10.44921875 0.04882812 C13.34640572 0.06060531 16.24348954 0.07705299 19.140625 0.09765625 C19.140625 1.08765625 19.140625 2.07765625 19.140625 3.09765625 C18.28831299 3.10176514 17.43600098 3.10587402 16.55786133 3.11010742 C13.37967152 3.13716045 10.20279208 3.18632055 7.02514648 3.25024414 C5.65287069 3.27336603 4.28041891 3.28780628 2.90795898 3.29321289 C0.92928029 3.3025429 -1.04914124 3.34622644 -3.02734375 3.390625 C-4.21610107 3.40633545 -5.4048584 3.4220459 -6.62963867 3.43823242 C-10.73906717 4.27726533 -12.18012416 5.95177592 -14.859375 9.09765625 C-15.519375 9.75765625 -16.179375 10.41765625 -16.859375 11.09765625 C-16.734375 8.34765625 -16.734375 8.34765625 -15.859375 5.09765625 C-10.62604595 0.79469681 -6.60094128 -0.03367827 0 0 Z " fill="#C3C3C4" transform="translate(148.859375,208.90234375)"/>
<path d="M0 0 C0.66 0.33 1.32 0.66 2 1 C1.67 1.33 1.34 1.66 1 2 C1.66 2.66 2.32 3.32 3 4 C-4.33333333 11.33333333 -11.66666667 18.66666667 -19 26 C-19.66 25.67 -20.32 25.34 -21 25 C-20.278125 24.26394531 -19.55625 23.52789062 -18.8125 22.76953125 C-17.87434953 21.78447325 -16.93688514 20.79876152 -16 19.8125 C-15.52304688 19.32974609 -15.04609375 18.84699219 -14.5546875 18.34960938 C-12.30874287 15.95928259 -11.03922165 14.59770392 -10.8203125 11.26171875 C-10.87960938 10.51535156 -10.93890625 9.76898438 -11 9 C-8.875 7 -8.875 7 -6 5 C-4.88756834 4.09338122 -3.78331844 3.17663032 -2.6875 2.25 C-1.3571875 1.13625 -1.3571875 1.13625 0 0 Z " fill="#A85C61" transform="translate(148,146)"/>
<path d="M0 0 C0.66 0.33 1.32 0.66 2 1 C-4.40689775 8.93938338 -4.40689775 8.93938338 -10 11 C-11.75217254 12.97119411 -13.38353198 14.92681562 -15 17 C-19.16866453 21.88329274 -24.0871911 24.64489815 -30 27 C-30.99 27 -31.98 27 -33 27 C-25.74047229 20.76548866 -18.40751999 14.66142101 -10.84716797 8.79370117 C-7.16636709 5.93513759 -3.56583562 3.00111052 0 0 Z " fill="#A14144" transform="translate(325,321)"/>
<path d="M0 0 C0 0.99 0 1.98 0 3 C-3.58668313 5.39112209 -5.16396569 5.23381027 -9.41796875 5.1953125 C-10.67158203 5.18886719 -11.92519531 5.18242187 -13.21679688 5.17578125 C-15.18229492 5.15064453 -15.18229492 5.15064453 -17.1875 5.125 C-18.52277987 5.11496639 -19.85806689 5.1058412 -21.19335938 5.09765625 C-24.46242015 5.07405292 -27.73112028 5.04112594 -31 5 C-31 4.01 -31 3.02 -31 2 C-30.13197754 1.97494385 -29.26395508 1.9498877 -28.36962891 1.92407227 C-25.15286837 1.82900516 -21.93627151 1.72976797 -18.71972656 1.62768555 C-17.3268741 1.58434154 -15.93396869 1.54266604 -14.54101562 1.50268555 C-12.54023349 1.44497068 -10.53964141 1.38078131 -8.5390625 1.31640625 C-7.33459473 1.27974854 -6.13012695 1.24309082 -4.88916016 1.20532227 C-2.06003633 1.18947013 -2.06003633 1.18947013 0 0 Z " fill="#C4C4C6" transform="translate(264,235)"/>
<path d="M0 0 C0.33 0.66 0.66 1.32 1 2 C1.66 2 2.32 2 3 2 C3.33 1.34 3.66 0.68 4 0 C4 3.63 4 7.26 4 11 C5.98 11 7.96 11 10 11 C10 16.61 10 22.22 10 28 C9.67 28 9.34 28 9 28 C8.95101563 27.00097656 8.90203125 26.00195312 8.8515625 24.97265625 C8.77679688 23.68230469 8.70203125 22.39195312 8.625 21.0625 C8.55539062 19.77472656 8.48578125 18.48695313 8.4140625 17.16015625 C8.27742188 16.11730469 8.14078125 15.07445312 8 14 C5.70691037 12.85345518 4.20090344 12.80270883 1.6484375 12.68359375 C0.79765625 12.64169922 -0.053125 12.59980469 -0.9296875 12.55664062 C-1.81914062 12.51732422 -2.70859375 12.47800781 -3.625 12.4375 C-4.5221875 12.39431641 -5.419375 12.35113281 -6.34375 12.30664062 C-8.56234283 12.20043139 -10.7810488 12.09838806 -13 12 C-13 14.64 -13 17.28 -13 20 C-13.33 20 -13.66 20 -14 20 C-14 17.03 -14 14.06 -14 11 C-9.38 11 -4.76 11 0 11 C0 7.37 0 3.74 0 0 Z " fill="#FAFBFB" transform="translate(364,210)"/>
<path d="M0 0 C1.12775345 0.00212242 1.12775345 0.00212242 2.27828979 0.00428772 C4.6829626 0.0098916 7.08754277 0.02244468 9.4921875 0.03515625 C11.12109241 0.04017075 12.74999877 0.04473375 14.37890625 0.04882812 C18.37503577 0.05986228 22.37109592 0.07712946 26.3671875 0.09765625 C26.3671875 0.75765625 26.3671875 1.41765625 26.3671875 2.09765625 C24.96025635 2.11953003 24.96025635 2.11953003 23.52490234 2.1418457 C20.02449371 2.20312342 16.52484301 2.27731557 13.02490234 2.36010742 C11.51393846 2.39323551 10.00285443 2.4213048 8.49169922 2.4440918 C6.31165668 2.47786306 4.13270311 2.53018521 1.953125 2.5859375 C-0.01068115 2.62521362 -0.01068115 2.62521362 -2.01416016 2.6652832 C-7.48379095 3.31881958 -11.40250728 5.68087127 -15.6328125 9.09765625 C-15.29313424 5.92732583 -14.63412059 5.09883018 -12.1953125 2.91015625 C-8.00282779 -0.05525976 -5.00079419 -0.03519365 0 0 Z " fill="#BBBBBC" transform="translate(247.6328125,196.90234375)"/>
<path d="M0 0 C3.0831351 1.19899698 6.06279492 2.47700477 9 4 C9.33 2.68 9.66 1.36 10 0 C12.31 2.64 14.62 5.28 17 8 C15.89131683 10.21736634 14.50559539 12.03617993 13 14 C13.99 14.33 14.98 14.66 16 15 C15.34 15.66 14.68 16.32 14 17 C11.85076482 14.54462247 9.70620312 12.08520798 7.5625 9.625 C6.95083984 8.92632812 6.33917969 8.22765625 5.70898438 7.5078125 C5.12568359 6.8375 4.54238281 6.1671875 3.94140625 5.4765625 C3.40201416 4.85861816 2.86262207 4.24067383 2.30688477 3.60400391 C1 2 1 2 0 0 Z " fill="#AC474A" transform="translate(238,343)"/>
<path d="M0 0 C0.66 0 1.32 0 2 0 C2.33 0.99 2.66 1.98 3 3 C2.34 3 1.68 3 1 3 C1 3.99 1 4.98 1 6 C3.31 6.33 5.62 6.66 8 7 C8 6.34 8 5.68 8 5 C8.66 5 9.32 5 10 5 C10.66 3.68 11.32 2.36 12 1 C12.66 1 13.32 1 14 1 C14.28875 1.61875 14.5775 2.2375 14.875 2.875 C15.93720042 5.13325765 15.93720042 5.13325765 18 7 C16.948125 7.268125 15.89625 7.53625 14.8125 7.8125 C11.40606874 8.87351957 9.00720311 10.16226477 6 12 C5.01 12 4.02 12 3 12 C1.39453125 10.03125 1.39453125 10.03125 -0.1875 7.5 C-0.71730469 6.6646875 -1.24710937 5.829375 -1.79296875 4.96875 C-2.19128906 4.3190625 -2.58960938 3.669375 -3 3 C-2.34 3 -1.68 3 -1 3 C-0.67 2.01 -0.34 1.02 0 0 Z " fill="#A72F34" transform="translate(261,372)"/>
<path d="M0 0 C0.99 0.33 1.98 0.66 3 1 C1.1145429 3.13504712 -0.78233712 5.25765603 -2.6875 7.375 C-3.48317383 8.27992188 -3.48317383 8.27992188 -4.29492188 9.203125 C-7.33118859 12.55605757 -9.58894878 14.61021674 -14 16 C-15.70294787 17.28667172 -17.37946188 18.61096733 -19 20 C-18.42741061 14.07630246 -15.02714179 11.92212199 -10.7109375 8.23046875 C-9.81632813 7.49441406 -8.92171875 6.75835937 -8 6 C-6.84371094 5.03513672 -6.84371094 5.03513672 -5.6640625 4.05078125 C-1.74941649 0.92925125 -1.74941649 0.92925125 0 0 Z " fill="#B66C70" transform="translate(161,132)"/>
<path d="M0 0 C2.92452129 2.01691123 5.25203188 3.87205706 7 7 C6.6875 9.75 6.6875 9.75 6 12 C5.34 12 4.68 12 4 12 C4 12.99 4 13.98 4 15 C4.99 15.33 5.98 15.66 7 16 C7.66 16.99 8.32 17.98 9 19 C7.68 19 6.36 19 5 19 C3.20861075 16.89422787 1.74055331 14.92637547 0.25 12.625 C-0.16121094 12.02171875 -0.57242187 11.4184375 -0.99609375 10.796875 C-4 6.30598526 -4 6.30598526 -4 4 C-1.525 4.495 -1.525 4.495 1 5 C0.67 3.35 0.34 1.7 0 0 Z " fill="#AE4B4E" transform="translate(257,376)"/>
<path d="M0 0 C0 0.99 0 1.98 0 3 C-0.99 3.01417969 -1.98 3.02835938 -3 3.04296875 C-13.96132925 3.30778762 -13.96132925 3.30778762 -23 9 C-24.65305736 11.2877556 -25.78928726 13.42723542 -27 16 C-27.33 16 -27.66 16 -28 16 C-28 12.19655778 -27.84646319 10.03227218 -25.3984375 7.046875 C-17.59388346 -0.12487736 -10.20908335 -0.30174631 0 0 Z " fill="#B5B6B7" transform="translate(367,190)"/>
<path d="M0 0 C1.1055189 0.93590504 2.20935453 1.87379858 3.3125 2.8125 C3.92738281 3.33457031 4.54226562 3.85664063 5.17578125 4.39453125 C6.85424679 5.87172469 8.43882034 7.40039131 10 9 C9.67 9.66 9.34 10.32 9 11 C8.34 10.67 7.68 10.34 7 10 C7.185625 10.94875 7.37125 11.8975 7.5625 12.875 C8 16 8 16 7 18 C3 13.5 3 13.5 3 9 C1.37446717 7.29319053 -0.29115995 5.62339805 -2 4 C-2 3.34 -2 2.68 -2 2 C-1.34 2 -0.68 2 0 2 C0 1.34 0 0.68 0 0 Z " fill="#B76A6C" transform="translate(227,321)"/>
<path d="M0 0 C0.66 0.33 1.32 0.66 2 1 C-0.14538284 4.21807425 -1.9911666 5.1024244 -5.32421875 6.8828125 C-7.67530055 8.45020037 -8.64865371 10.56757667 -10 13 C-10.99 13 -11.98 13 -13 13 C-13 10.37886292 -12.68707555 8.49064888 -12 6 C-12.66 5.67 -13.32 5.34 -14 5 C-11.8614515 2.8614515 -10.86724686 2.57344937 -8 2 C-8 2.66 -8 3.32 -8 4 C-4.64404172 3.40072174 -2.62198774 2.15377564 0 0 Z " fill="#AF383C" transform="translate(291,364)"/>
<path d="M0 0 C0.66 0.33 1.32 0.66 2 1 C1.50628906 1.55429687 1.01257813 2.10859375 0.50390625 2.6796875 C-0.45708984 3.76636719 -0.45708984 3.76636719 -1.4375 4.875 C-2.07558594 5.59429687 -2.71367187 6.31359375 -3.37109375 7.0546875 C-5.05014465 8.90750491 -5.05014465 8.90750491 -6 11 C-6.99 11 -7.98 11 -9 11 C-9 11.66 -9 12.32 -9 13 C-10.42578125 14.32421875 -10.42578125 14.32421875 -12.3125 15.6875 C-12.92738281 16.14511719 -13.54226563 16.60273437 -14.17578125 17.07421875 C-14.77777344 17.37972656 -15.37976563 17.68523438 -16 18 C-16.99 17.67 -17.98 17.34 -19 17 C-12.74987827 11.23223578 -6.510703 5.47490934 0 0 Z " fill="#AD5155" transform="translate(276,32)"/>
<path d="M0 0 C2.4375 3 2.4375 3 4 6 C3.75 8.375 3.75 8.375 3 10 C2.34 8.02 1.68 6.04 1 4 C0.01 4 -0.98 4 -2 4 C-2 3.01 -2 2.02 -2 1 C-2.94875 0.690625 -3.8975 0.38125 -4.875 0.0625 C-8 -1 -8 -1 -10 -2 C-11.87056791 -2.2275015 -13.74685958 -2.40962811 -15.625 -2.5625 C-16.62789063 -2.64628906 -17.63078125 -2.73007813 -18.6640625 -2.81640625 C-19.43492187 -2.87699219 -20.20578125 -2.93757812 -21 -3 C-21 -3.33 -21 -3.66 -21 -4 C-12.4455402 -5.0796891 -7.09657902 -5.58666859 0 0 Z " fill="#C5C6C7" transform="translate(323,214)"/>
<path d="M0 0 C0 1.65 0 3.3 0 5 C-0.99 4.67 -1.98 4.34 -3 4 C-3 4.99 -3 5.98 -3 7 C-4.32 7.33 -5.64 7.66 -7 8 C-7 8.66 -7 9.32 -7 10 C-7.66 10 -8.32 10 -9 10 C-9.33 10.66 -9.66 11.32 -10 12 C-10.48372093 4.74418605 -10.48372093 4.74418605 -8.375 1.5 C-5.39901677 -0.37956836 -3.45669582 -0.31424507 0 0 Z " fill="#9F2729" transform="translate(146,166)"/>
<path d="M0 0 C2.9008605 0.35298081 3.89516676 0.88728296 5.921875 3.06640625 C6.52515625 3.89011719 7.1284375 4.71382813 7.75 5.5625 C8.36359375 6.38878906 8.9771875 7.21507812 9.609375 8.06640625 C10.06828125 8.70449219 10.5271875 9.34257812 11 10 C10.34 10.66 9.68 11.32 9 12 C8.01 11.01 7.02 10.02 6 9 C5.67 9.99 5.34 10.98 5 12 C4.15885829 10.56705502 3.32734313 9.12845595 2.5 7.6875 C1.80390625 6.48673828 1.80390625 6.48673828 1.09375 5.26171875 C0 3 0 3 0 0 Z " fill="#B05F5E" transform="translate(241,359)"/>
<path d="M0 0 C1.66666667 0 3.33333333 0 5 0 C3.52841629 3.61497739 1.58537669 5.40591511 -1.5 7.75 C-2.2940625 8.36359375 -3.088125 8.9771875 -3.90625 9.609375 C-6 11 -6 11 -8 11 C-8.36213469 6.53367217 -8.36213469 6.53367217 -6.8125 4.25 C-4.58183452 2.71161002 -2.6635969 2.35994553 0 2 C0 1.34 0 0.68 0 0 Z " fill="#A4383B" transform="translate(356,321)"/>
<path d="M0 0 C1.32 0.33 2.64 0.66 4 1 C-0.26587874 5.54109672 -5.03612328 9.24735246 -10 13 C-10.66 12.01 -11.32 11.02 -12 10 C-11.67 9.01 -11.34 8.02 -11 7 C-10.01 7.33 -9.02 7.66 -8 8 C-7.79375 7.38125 -7.5875 6.7625 -7.375 6.125 C-5.45224112 3.15346355 -3.33405473 2.86975341 0 2 C0 1.34 0 0.68 0 0 Z " fill="#AD474E" transform="translate(415,275)"/>
<path d="M0 0 C1.28132813 0.00902344 2.56265625 0.01804688 3.8828125 0.02734375 C4.87023437 0.03894531 5.85765625 0.05054688 6.875 0.0625 C6.875 0.3925 6.875 0.7225 6.875 1.0625 C4.9259375 1.18625 4.9259375 1.18625 2.9375 1.3125 C-5.1351395 2.22638372 -11.22417541 5.615585 -17.125 11.0625 C-16.56497584 7.52590908 -15.44725676 6.10690308 -12.6875 3.875 C-12.07003906 3.36582031 -11.45257813 2.85664063 -10.81640625 2.33203125 C-7.21949285 -0.36773054 -4.44677795 -0.04042525 0 0 Z " fill="#ACADAF" transform="translate(97.125,208.9375)"/>
<path d="M0 0 C4.27496337 2.2632159 8.0642615 5.12603579 11 9 C11 9.99 11 10.98 11 12 C7.49138358 11.41781807 5.75070647 10.18286308 3.25 7.6875 C2.32960937 6.79611328 2.32960937 6.79611328 1.390625 5.88671875 C0 4 0 4 0 0 Z " fill="#9A4446" transform="translate(216,311)"/>
<path d="M0 0 C4.78413713 3.53346168 9.52214386 7.08187588 14 11 C14 11.33 14 11.66 14 12 C12.35 12 10.7 12 9 12 C9 11.34 9 10.68 9 10 C8.01 10.33 7.02 10.66 6 11 C5.34 10.67 4.68 10.34 4 10 C4.33 8.68 4.66 7.36 5 6 C4.34 6 3.68 6 3 6 C2.67 6.66 2.34 7.32 2 8 C2 6.35 2 4.7 2 3 C1.34 3 0.68 3 0 3 C0 2.01 0 1.02 0 0 Z " fill="#A93E42" transform="translate(442,173)"/>
<path d="M0 0 C5.11723176 3.19826985 9.52692892 6.95834187 14 11 C13.01 11.99 12.02 12.98 11 14 C9.5 12.6875 9.5 12.6875 8 11 C8 10.01 8 9.02 8 8 C5.60931266 6.89363605 5.60931266 6.89363605 3 6 C2.01 6.495 2.01 6.495 1 7 C0.67 4.69 0.34 2.38 0 0 Z " fill="#AC4B50" transform="translate(385,125)"/>
<path d="M0 0 C2 2 2 2 2.1875 5.5625 C2 9 2 9 1 10 C-2.2098693 10.26998901 -5.41230859 10.44611437 -8.62890625 10.60546875 C-12.10944277 10.4970552 -12.10944277 10.4970552 -15 12 C-15.07179964 13.51928038 -15.08392007 15.04167482 -15.0625 16.5625 C-15.05347656 17.38878906 -15.04445313 18.21507812 -15.03515625 19.06640625 C-15.02355469 19.70449219 -15.01195312 20.34257812 -15 21 C-15.66 20.67 -16.32 20.34 -17 20 C-17.02688151 18.35425434 -17.04634123 16.70838587 -17.0625 15.0625 C-17.07410156 14.14597656 -17.08570313 13.22945312 -17.09765625 12.28515625 C-17 10 -17 10 -16 9 C-13.30345146 8.92680379 -10.63308542 8.90757463 -7.9375 8.9375 C-6.79958008 8.94426758 -6.79958008 8.94426758 -5.63867188 8.95117188 C-3.75908129 8.9629932 -1.87953101 8.98092922 0 9 C0 6.03 0 3.06 0 0 Z " fill="#EEEFEF" transform="translate(401,212)"/>
<path d="M0 0 C0 0.66 0 1.32 0 2 C-1.03125 2.33 -2.0625 2.66 -3.125 3 C-7.88471447 5.03158544 -10.46465652 8.59741032 -13 13 C-13.93602676 15.80080534 -13.93602676 15.80080534 -14 18 C-14.33 18 -14.66 18 -15 18 C-15.4596998 12.25375254 -14.67500704 9.44869274 -11 5 C-7.66773462 1.5307922 -5.04218597 -0.74149794 0 0 Z " fill="#B1B1B3" transform="translate(192,210)"/>
<path d="M0 0 C0.66 0.33 1.32 0.66 2 1 C0.14756589 5.26059844 -0.86254266 7.05296125 -5 9 C-6.80670879 10.9099493 -8.37652258 12.92555663 -10 15 C-10 12 -10 12 -8 10 C-8 9.01 -8 8.02 -8 7 C-6.25 5.17578125 -6.25 5.17578125 -4 3.3125 C-3.2575 2.68988281 -2.515 2.06726563 -1.75 1.42578125 C-1.1725 0.95527344 -0.595 0.48476562 0 0 Z " fill="#C17E80" transform="translate(171,123)"/>
<path d="M0 0 C1.15224028 0.92961422 2.29659176 1.8690125 3.4375 2.8125 C4.39462891 3.59560547 4.39462891 3.59560547 5.37109375 4.39453125 C7 6 7 6 8 9 C1.8894576 9.11269443 -3.95170514 8.89604368 -10 8 C-10 7.67 -10 7.34 -10 7 C-3.565 6.505 -3.565 6.505 3 6 C2.34 5.67 1.68 5.34 1 5 C0.375 2.4375 0.375 2.4375 0 0 Z " fill="#B46E71" transform="translate(501,227)"/>
<path d="M0 0 C0.33 0.66 0.66 1.32 1 2 C1.66 2 2.32 2 3 2 C1.55575365 5.23861303 -0.25772247 7.61969163 -2.625 10.25 C-3.25664063 10.95640625 -3.88828125 11.6628125 -4.5390625 12.390625 C-5.02117187 12.92171875 -5.50328125 13.4528125 -6 14 C-6.33 13.01 -6.66 12.02 -7 11 C-5.56640625 8.30078125 -5.56640625 8.30078125 -3.5625 5.3125 C-2.57443359 3.82169922 -2.57443359 3.82169922 -1.56640625 2.30078125 C-1.04949219 1.54152344 -0.53257813 0.78226563 0 0 Z " fill="#B77379" transform="translate(128,185)"/>
<path d="M0 0 C3.458176 -0.0868329 6.91607344 -0.14033282 10.375 -0.1875 C11.35984375 -0.21263672 12.3446875 -0.23777344 13.359375 -0.26367188 C14.77089844 -0.27817383 14.77089844 -0.27817383 16.2109375 -0.29296875 C17.08024902 -0.3086792 17.94956055 -0.32438965 18.84521484 -0.34057617 C19.55629395 -0.22818604 20.26737305 -0.1157959 21 0 C21.66 0.99 22.32 1.98 23 3 C15.74 2.67 8.48 2.34 1 2 C0.67 1.34 0.34 0.68 0 0 Z " fill="#B6B7B9" transform="translate(244,217)"/>
<path d="M0 0 C2.4375 0.375 2.4375 0.375 5 1 C5.33 1.66 5.66 2.32 6 3 C6.99 3.33 7.98 3.66 9 4 C9 4.66 9 5.32 9 6 C9.99 6.33 10.98 6.66 12 7 C12 7.99 12 8.98 12 10 C14.475 10.99 14.475 10.99 17 12 C17 12.99 17 13.98 17 15 C11.02320179 10.70061382 5.29045116 6.13124776 0 1 C0 0.67 0 0.34 0 0 Z " fill="#AD585C" transform="translate(427,188)"/>
<path d="M0 0 C-1.49041773 3.79379058 -3.69062512 5.68343758 -7 8 C-7.66 8 -8.32 8 -9 8 C-9.66 6.68 -10.32 5.36 -11 4 C-9.07392696 1.53890667 -8.06050223 1.01358213 -4.9375 0.3125 C-2 0 -2 0 0 0 Z " fill="#A83E42" transform="translate(298,371)"/>
<path d="M0 0 C0.99 0.495 0.99 0.495 2 1 C2 1.66 2 2.32 2 3 C3.32 2.67 4.64 2.34 6 2 C7.5625 4.3125 7.5625 4.3125 9 7 C8.67 7.99 8.34 8.98 8 10 C4.63362603 8.5572683 2.33497429 6.83532593 0 4 C0 2.68 0 1.36 0 0 Z " fill="#A0252B" transform="translate(239,338)"/>
<path d="M0 0 C0 0.66 0 1.32 0 2 C-5.445 3.485 -5.445 3.485 -11 5 C-11 5.66 -11 6.32 -11 7 C-11.66 7 -12.32 7 -13 7 C-13.66 8.65 -14.32 10.3 -15 12 C-15.8125 10.3125 -15.8125 10.3125 -16 8 C-11.3988872 2.45159926 -7.2945188 -0.50891992 0 0 Z " fill="#B4B5B5" transform="translate(27,196)"/>
<path d="M0 0 C4.54075781 4.14010271 7.71842138 8.82390176 11 14 C8 14 8 14 6.3125 12.6875 C5 11 5 11 5 8 C3.02 8 1.04 8 -1 8 C-1 7.34 -1 6.68 -1 6 C-0.34 6 0.32 6 1 6 C0.67 4.02 0.34 2.04 0 0 Z " fill="#AB4C51" transform="translate(257,355)"/>
<path d="M0 0 C0.33 0 0.66 0 1 0 C1 2.31 1 4.62 1 7 C0.34 7 -0.32 7 -1 7 C-2.32 9.31 -3.64 11.62 -5 14 C-5.66 13.67 -6.32 13.34 -7 13 C-6.66496985 7.63951758 -3.4126588 3.90710652 0 0 Z " fill="#AB5556" transform="translate(135,171)"/>
<path d="M0 0 C-3.11016455 3.28788824 -6.01618925 5.83735988 -10 8 C-10 6.68 -10 5.36 -10 4 C-10.66 3.67 -11.32 3.34 -12 3 C-11.01 2.67 -10.02 2.34 -9 2 C-8.67 1.34 -8.34 0.68 -8 0 C-4.71023192 -1.09658936 -3.28696233 -0.79953138 0 0 Z " fill="#A83E42" transform="translate(224,105)"/>
<path d="M0 0 C3.20784721 -0.14622024 6.41482961 -0.23436651 9.625 -0.3125 C10.98044922 -0.3753418 10.98044922 -0.3753418 12.36328125 -0.43945312 C16.95583825 -0.52325891 20.02532491 -0.49972924 23.6484375 2.51953125 C24.42445313 3.33808594 25.20046875 4.15664062 26 5 C25.67 5.99 25.34 6.98 25 8 C24.814375 7.38125 24.62875 6.7625 24.4375 6.125 C22.34225358 3.0276792 19.49723753 2.70438912 16 2 C13.19045616 1.66035207 10.38892967 1.499125 7.5625 1.375 C6.46518555 1.31699219 6.46518555 1.31699219 5.34570312 1.2578125 C3.56416468 1.16466016 1.78211878 1.08129714 0 1 C0 0.67 0 0.34 0 0 Z " fill="#B9BABC" transform="translate(144,225)"/>
<path d="M0 0 C1.07765625 0.00902344 2.1553125 0.01804688 3.265625 0.02734375 C4.08546875 0.03894531 4.9053125 0.05054688 5.75 0.0625 C5.75 1.0525 5.75 2.0425 5.75 3.0625 C3.64611431 3.11652274 1.54183286 3.15530256 -0.5625 3.1875 C-2.32013672 3.22230469 -2.32013672 3.22230469 -4.11328125 3.2578125 C-7.25 3.0625 -7.25 3.0625 -10.25 1.0625 C-6.78777385 -0.00473961 -3.60960734 -0.03923486 0 0 Z " fill="#C1C2C2" transform="translate(361.25,189.9375)"/>
<path d="M0 0 C4.52615993 3.67832017 8.39424999 7.41086363 12 12 C9.03 11.505 9.03 11.505 6 11 C5.67 10.01 5.34 9.02 5 8 C3.7315625 7.319375 3.7315625 7.319375 2.4375 6.625 C1.633125 6.08875 0.82875 5.5525 0 5 C-0.3125 2.3125 -0.3125 2.3125 0 0 Z " fill="#B66565" transform="translate(347,89)"/>
<path d="M0 0 C-3.9700218 4.21814817 -8.30840284 7.61227103 -13 11 C-12.67 9.02 -12.34 7.04 -12 5 C-11.01 5 -10.02 5 -9 5 C-8.566875 4.0409375 -8.566875 4.0409375 -8.125 3.0625 C-6.14499356 -0.56751181 -3.81564568 -0.10041173 0 0 Z " fill="#AA5154" transform="translate(262,73)"/>
<path d="M0 0 C5.78461538 4.43076923 5.78461538 4.43076923 6.875 7.3125 C6.936875 8.1478125 6.936875 8.1478125 7 9 C3.22089522 9 2.53893899 8.00296038 -0.1875 5.5 C-0.90292969 4.8503125 -1.61835938 4.200625 -2.35546875 3.53125 C-2.89816406 3.0259375 -3.44085938 2.520625 -4 2 C-3.34 1.67 -2.68 1.34 -2 1 C-1.34 1.33 -0.68 1.66 0 2 C0 1.34 0 0.68 0 0 Z " fill="#B46A6C" transform="translate(197,291)"/>
<path d="M0 0 C0.33 0.99 0.66 1.98 1 3 C-3.75 7 -3.75 7 -6 7 C-6.433125 7.639375 -6.86625 8.27875 -7.3125 8.9375 C-9.40849852 11.49927596 -10.78299472 11.65221564 -14 12 C-9.73412126 7.45890328 -4.96387672 3.75264754 0 0 Z " fill="#B35D60" transform="translate(412,252)"/>
<path d="M0 0 C0 3 0 3 -2.375 5.625 C-6.41506092 9.28029322 -8.61610944 9.09970168 -14 9 C-14.33 8.34 -14.66 7.68 -15 7 C-14.12988281 6.87044922 -14.12988281 6.87044922 -13.2421875 6.73828125 C-7.41168056 5.6895597 -4.24345436 4.13464784 0 0 Z " fill="#BABBBD" transform="translate(110,232)"/>
<path d="M0 0 C1.67542976 0.28604898 3.34385343 0.61781233 5 1 C3.25 5.875 3.25 5.875 1 7 C1 7.66 1 8.32 1 9 C0.01 8.67 -0.98 8.34 -2 8 C-1.125 1.125 -1.125 1.125 0 0 Z " fill="#A21B1E" transform="translate(272,382)"/>
<path d="M0 0 C4.43458973 1.3937282 6.87378374 3.60582235 10 7 C9.01 7.66 8.02 8.32 7 9 C5.82460004 8.07347299 4.65989423 7.13336613 3.5 6.1875 C2.52546875 5.40439453 2.52546875 5.40439453 1.53125 4.60546875 C0 3 0 3 0 0 Z " fill="#B36C6E" transform="translate(163,264)"/>
<path d="M0 0 C9.84226785 0.62184263 9.84226785 0.62184263 14 4 C14.33 4.99 14.66 5.98 15 7 C12.74146894 6.49810421 10.70840646 5.88037188 8.5625 5 C6.04182913 4.01632356 3.6611673 3.45620011 1 3 C0.67 2.01 0.34 1.02 0 0 Z " fill="#C4C4C5" transform="translate(26,195)"/>
<path d="M0 0 C0.99 0.33 1.98 0.66 3 1 C5.00875442 0.72428861 7.01178687 0.39764263 9 0 C5.83047153 3.26008643 2.60062011 6.22237877 -1 9 C-1.66 7.68 -2.32 6.36 -3 5 C-1.68 4.67 -0.36 4.34 1 4 C0.67 2.68 0.34 1.36 0 0 Z " fill="#AE4D50" transform="translate(205,113)"/>
<path d="M0 0 C0.66 0 1.32 0 2 0 C2.28875 0.61875 2.5775 1.2375 2.875 1.875 C3.93720042 4.13325765 3.93720042 4.13325765 6 6 C3.69 6.66 1.38 7.32 -1 8 C-1.99 6.68 -2.98 5.36 -4 4 C-3.34 4 -2.68 4 -2 4 C-1.34 2.68 -0.68 1.36 0 0 Z " fill="#B14247" transform="translate(273,373)"/>
<path d="M0 0 C0.66 0.33 1.32 0.66 2 1 C-5.21095718 9.93576826 -5.21095718 9.93576826 -10 11 C-10.99 11 -11.98 11 -13 11 C-8.71 7.37 -4.42 3.74 0 0 Z " fill="#B35E62" transform="translate(325,321)"/>
<path d="M0 0 C1.65 0 3.3 0 5 0 C6.04449911 3.13349732 5.93423645 3.98968256 5 7 C5.66 7 6.32 7 7 7 C6.67 8.32 6.34 9.64 6 11 C4.9944239 9.54550599 3.99569565 8.08627557 3 6.625 C2.443125 5.81289063 1.88625 5.00078125 1.3125 4.1640625 C0 2 0 2 0 0 Z " fill="#B7676C" transform="translate(249,361)"/>
<path d="M0 0 C-1.07401108 2.91517292 -1.77810176 4.77810176 -4 7 C-4.66 7 -5.32 7 -6 7 C-7.66965451 7.31802943 -9.33678518 7.64984951 -11 8 C-9.33333333 6.33333333 -7.66666667 4.66666667 -6 3 C-5.46375 2.401875 -4.9275 1.80375 -4.375 1.1875 C-3 0 -3 0 0 0 Z " fill="#AA4F52" transform="translate(393,269)"/>
<path d="M0 0 C3.63 0 7.26 0 11 0 C11 0.99 11 1.98 11 3 C7.37 3 3.74 3 0 3 C0 2.01 0 1.02 0 0 Z " fill="#BFBFC1" transform="translate(374,194)"/>
<path d="M0 0 C0.33 0.99 0.66 1.98 1 3 C-0.98 3.99 -0.98 3.99 -3 5 C-4.7074998 3.71937515 -6.37373596 2.38232443 -8 1 C-8 0.34 -8 -0.32 -8 -1 C-4.63757626 -2.20086562 -2.95940955 -2.0409721 0 0 Z " fill="#A4373A" transform="translate(423,178)"/>
<path d="M0 0 C0.99 0.33 1.98 0.66 3 1 C3 1.99 3 2.98 3 4 C4.32 4.33 5.64 4.66 7 5 C7.33 6.98 7.66 8.96 8 11 C6.67823515 10.09674384 5.36784934 9.17682097 4.0625 8.25 C3.33160156 7.73953125 2.60070312 7.2290625 1.84765625 6.703125 C-0.21129098 4.80523707 -0.72755001 3.75928079 -1 1 C-0.67 0.67 -0.34 0.34 0 0 Z " fill="#AC4A4D" transform="translate(382,146)"/>
<path d="M0 0 C0.66 0.33 1.32 0.66 2 1 C1.67 1.99 1.34 2.98 1 4 C0.01 4.33 -0.98 4.66 -2 5 C-2.99 6.485 -2.99 6.485 -4 8 C-7 9.75 -7 9.75 -10 11 C-10.66 10.67 -11.32 10.34 -12 10 C-8.04 6.7 -4.08 3.4 0 0 Z " fill="#B56569" transform="translate(380,277)"/>
<path d="M0 0 C8.25 0 16.5 0 25 0 C25 0.33 25 0.66 25 1 C24.07719238 1.03758423 24.07719238 1.03758423 23.13574219 1.07592773 C20.34029844 1.19218487 17.54516702 1.31477642 14.75 1.4375 C13.78191406 1.47681641 12.81382812 1.51613281 11.81640625 1.55664062 C10.41455078 1.61948242 10.41455078 1.61948242 8.984375 1.68359375 C8.12553711 1.72025146 7.26669922 1.75690918 6.38183594 1.79467773 C4.15039857 1.98703514 2.15017476 2.38846244 0 3 C0 2.01 0 1.02 0 0 Z " fill="#EFF0F0" transform="translate(143,221)"/>
<path d="M0 0 C1.91635217 -0.05423638 3.83314925 -0.09289963 5.75 -0.125 C7.35101563 -0.15980469 7.35101563 -0.15980469 8.984375 -0.1953125 C11.92470106 -0.00487687 13.52361878 0.47329896 16 2 C15.67 2.66 15.34 3.32 15 4 C12.87422093 3.9131724 10.74930419 3.8050049 8.625 3.6875 C7.44164063 3.62949219 6.25828125 3.57148438 5.0390625 3.51171875 C3.53472656 3.25841797 3.53472656 3.25841797 2 3 C1.34 2.01 0.68 1.02 0 0 Z " fill="#C6C7C9" transform="translate(93,208)"/>
<path d="M0 0 C1.65 0.99 3.3 1.98 5 3 C4.67 4.65 4.34 6.3 4 8 C3.67 7.34 3.34 6.68 3 6 C1.02 6.33 -0.96 6.66 -3 7 C-2.25 2.25 -2.25 2.25 0 0 Z " fill="#9E1E21" transform="translate(148,158)"/>
<path d="M0 0 C0.99 0.66 1.98 1.32 3 2 C2.67 2.66 2.34 3.32 2 4 C1.34 3.67 0.68 3.34 0 3 C0.185625 3.94875 0.37125 4.8975 0.5625 5.875 C1 9 1 9 0 11 C-4 6.25 -4 6.25 -4 4 C-2.70766393 2.62689293 -1.37562854 1.28965176 0 0 Z " fill="#B97070" transform="translate(234,328)"/>
<path d="M0 0 C2.91517292 1.07401108 4.77810176 1.77810176 7 4 C7 4.99 7 5.98 7 7 C3.64404172 6.40072174 1.62198774 5.15377564 -1 3 C-0.67 2.01 -0.34 1.02 0 0 Z " fill="#A7595B" transform="translate(172,271)"/>
<path d="M0 0 C0.99 0.99 1.98 1.98 3 3 C0.69 5.31 -1.62 7.62 -4 10 C-4.66 8.68 -5.32 7.36 -6 6 C-5.34 5.67 -4.68 5.34 -4 5 C-3.67 4.01 -3.34 3.02 -3 2 C-2.34 2.33 -1.68 2.66 -1 3 C-0.67 2.01 -0.34 1.02 0 0 Z " fill="#B55E60" transform="translate(146,167)"/>
<path d="M0 0 C1.32 0.33 2.64 0.66 4 1 C2.54712339 2.33927721 1.08752741 3.67126847 -0.375 5 C-1.18710938 5.7425 -1.99921875 6.485 -2.8359375 7.25 C-5 9 -5 9 -7 9 C-7 8.01 -7 7.02 -7 6 C-6.01 6 -5.02 6 -4 6 C-3.67 4.68 -3.34 3.36 -3 2 C-2.01 2 -1.02 2 0 2 C0 1.34 0 0.68 0 0 Z " fill="#AE565A" transform="translate(192,128)"/>
<path d="M0 0 C0.66 0.33 1.32 0.66 2 1 C-0.77463498 5.80225284 -2.97405677 7.75436579 -8 10 C-9.81554159 11.56102491 -9.81554159 11.56102491 -11 13 C-11.66 12.67 -12.32 12.34 -13 12 C-8.71 8.04 -4.42 4.08 0 0 Z " fill="#B86D71" transform="translate(255,50)"/>
<path d="M0 0 C0.66 0.33 1.32 0.66 2 1 C-0.625 6.75 -0.625 6.75 -4 9 C-4 8.34 -4 7.68 -4 7 C-4.99 6.67 -5.98 6.34 -7 6 C-4.69 4.02 -2.38 2.04 0 0 Z " fill="#AD4C51" transform="translate(275,361)"/>
<path d="M0 0 C-1 3 -1 3 -3.6875 4.6875 C-7.08981286 6.03558623 -9.38327271 6.25833766 -13 6 C-13.33 5.34 -13.66 4.68 -14 4 C-13.38511719 3.87882813 -12.77023437 3.75765625 -12.13671875 3.6328125 C-11.32847656 3.46523437 -10.52023437 3.29765625 -9.6875 3.125 C-8.88699219 2.96257812 -8.08648437 2.80015625 -7.26171875 2.6328125 C-4.49539754 1.85881589 -2.89416566 0 0 0 Z " fill="#B6B7B8" transform="translate(315,235)"/>
<path d="M0 0 C1.9375 0.8125 1.9375 0.8125 4 2 C4.33 2.99 4.66 3.98 5 5 C6.31200404 6.35432675 7.64631404 7.68733482 9 9 C9.99 10.485 9.99 10.485 11 12 C10.01 12 9.02 12 8 12 C5.95703125 9.8828125 5.95703125 9.8828125 3.8125 7.125 C3.09707031 6.22007813 2.38164062 5.31515625 1.64453125 4.3828125 C0 2 0 2 0 0 Z " fill="#B66369" transform="translate(295,62)"/>
<path d="M0 0 C-1.28627711 1.17260611 -2.57919783 2.3379283 -3.875 3.5 C-4.59429687 4.1496875 -5.31359375 4.799375 -6.0546875 5.46875 C-8 7 -8 7 -10 7 C-10 6.01 -10 5.02 -10 4 C-9.34 4 -8.68 4 -8 4 C-8 3.34 -8 2.68 -8 2 C-7.34 2 -6.68 2 -6 2 C-6 1.34 -6 0.68 -6 0 C-3 -1 -3 -1 0 0 Z " fill="#AF585C" transform="translate(323,353)"/>
<path d="M0 0 C0.625 1.8125 0.625 1.8125 1 4 C-1.24628738 7.36943107 -1.37160702 7.25297792 -5 8 C-6.34302714 8.646916 -7.67791376 9.31129817 -9 10 C-8.06862408 8.70391053 -7.1296434 7.41328368 -6.1875 6.125 C-5.66542969 5.40570313 -5.14335937 4.68640625 -4.60546875 3.9453125 C-3 2 -3 2 0 0 Z " fill="#BB6264" transform="translate(154,147)"/>
<path d="M0 0 C1.32 0.66 2.64 1.32 4 2 C2.8803014 3.00593243 1.7540588 4.0045849 0.625 5 C-0.00148437 5.556875 -0.62796875 6.11375 -1.2734375 6.6875 C-3 8 -3 8 -5 8 C-5 6.68 -5 5.36 -5 4 C-4.01 4 -3.02 4 -2 4 C-1.34 2.68 -0.68 1.36 0 0 Z " fill="#AF5153" transform="translate(171,145)"/>
<path d="M0 0 C3.44025728 1.24231513 6.30207814 2.49478685 9 5 C9.75 7.1875 9.75 7.1875 10 9 C7 9 7 9 5.17578125 7.28515625 C4.56089844 6.55167969 3.94601563 5.81820313 3.3125 5.0625 C2.68988281 4.33160156 2.06726563 3.60070312 1.42578125 2.84765625 C0 1 0 1 0 0 Z " fill="#B05E5F" transform="translate(238,343)"/>
<path d="M0 0 C0.99 0.33 1.98 0.66 3 1 C-0.15808152 3.40615735 -2.26111299 4.91474381 -6.25 5.375 C-9 5 -9 5 -11 3 C-10.37351563 2.86722656 -9.74703125 2.73445312 -9.1015625 2.59765625 C-8.28429687 2.42105469 -7.46703125 2.24445313 -6.625 2.0625 C-5.81289062 1.88847656 -5.00078125 1.71445313 -4.1640625 1.53515625 C-1.970537 1.07669307 -1.970537 1.07669307 0 0 Z " fill="#B4B4B7" transform="translate(205,236)"/>
<path d="M0 0 C0.66 0.33 1.32 0.66 2 1 C1.67 1.99 1.34 2.98 1 4 C-0.32 4 -1.64 4 -3 4 C-3.33 5.32 -3.66 6.64 -4 8 C-5.98 8.33 -7.96 8.66 -10 9 C-6.83047153 5.73991357 -3.60062011 2.77762123 0 0 Z " fill="#B25E63" transform="translate(447,224)"/>
<path d="M0 0 C0.66 0.33 1.32 0.66 2 1 C0.21371169 2.67277835 -1.5785075 4.33824443 -3.375 6 C-4.13683594 6.71542969 -4.13683594 6.71542969 -4.9140625 7.4453125 C-8.7734375 11 -8.7734375 11 -11 11 C-9.48832294 6.76730422 -6.69447201 5.33731903 -3 3 C-1.20605554 1.37648891 -1.20605554 1.37648891 0 0 Z " fill="#E5ADAF" transform="translate(148,146)"/>
<path d="M0 0 C0.66 0.33 1.32 0.66 2 1 C-0.625 6.75 -0.625 6.75 -4 9 C-4.66 8.34 -5.32 7.68 -6 7 C-4.02 4.69 -2.04 2.38 0 0 Z " fill="#C07A7F" transform="translate(177,118)"/>
<path d="M0 0 C0.33 0.99 0.66 1.98 1 3 C-1.23775234 6.3566285 -1.93320048 6.57996014 -5.625 7.6875 C-6.85089844 8.06455078 -6.85089844 8.06455078 -8.1015625 8.44921875 C-8.72804687 8.63097656 -9.35453125 8.81273438 -10 9 C-6.83047153 5.73991357 -3.60062011 2.77762123 0 0 Z " fill="#B15A5E" transform="translate(230,72)"/>
<path d="M0 0 C3.34998521 1.11666174 3.79340222 1.74694925 5.6875 4.5625 C6.12449219 5.20316406 6.56148438 5.84382813 7.01171875 6.50390625 C7.33785156 6.99761719 7.66398437 7.49132813 8 8 C7.67 8.66 7.34 9.32 7 10 C5.68 9.34 4.36 8.68 3 8 C3 6.68 3 5.36 3 4 C1.68 3.34 0.36 2.68 -1 2 C-0.67 1.34 -0.34 0.68 0 0 Z " fill="#AD5153" transform="translate(298,32)"/>
<path d="M0 0 C0.99 0 1.98 0 3 0 C2.3125 2.375 2.3125 2.375 1 5 C-1.625 6.3125 -1.625 6.3125 -4 7 C-4.66 5.68 -5.32 4.36 -6 3 C-5.01 3.33 -4.02 3.66 -3 4 C-2.566875 3.34 -2.13375 2.68 -1.6875 2 C-1.130625 1.34 -0.57375 0.68 0 0 Z " fill="#B5595D" transform="translate(269,381)"/>
<path d="M0 0 C1.875 0.125 1.875 0.125 4 1 C5.25 4.0625 5.25 4.0625 6 7 C5.34 7 4.68 7 4 7 C3.67 7.66 3.34 8.32 3 9 C0 3.375 0 3.375 0 0 Z " fill="#AD5558" transform="translate(241,359)"/>
<path d="M0 0 C1.66666667 0 3.33333333 0 5 0 C3.49776416 4.20626034 0.71449966 5.73900021 -3 8 C-3.33 6.68 -3.66 5.36 -4 4 C-2.68 3.34 -1.36 2.68 0 2 C0 1.34 0 0.68 0 0 Z " fill="#B2565A" transform="translate(356,321)"/>
<path d="M0 0 C3.14624993 -0.26218749 4.61837017 -0.24754367 7.3125 1.5 C8.1478125 2.2425 8.1478125 2.2425 9 3 C8.34 4.32 7.68 5.64 7 7 C5.83040013 6.02433888 4.66438823 5.044375 3.5 4.0625 C2.8503125 3.51722656 2.200625 2.97195313 1.53125 2.41015625 C1.0259375 1.94480469 0.520625 1.47945313 0 1 C0 0.67 0 0.34 0 0 Z " fill="#B5696B" transform="translate(209,307)"/>
<path d="M0 0 C1.32 0 2.64 0 4 0 C4 0.66 4 1.32 4 2 C1.33333333 3.33333333 -1.33333333 4.66666667 -4 6 C-5.32 4.68 -6.64 3.36 -8 2 C-7.05125 2.04125 -6.1025 2.0825 -5.125 2.125 C-1.89755144 2.34973818 -1.89755144 2.34973818 0 0 Z " fill="#BABBBD" transform="translate(118,210)"/>
<path d="M0 0 C-1.50206081 3.00412163 -4.03469065 3.54641699 -7 5 C-8.35863401 5.96534522 -9.70343137 6.95277149 -11 8 C-10.67278832 4.94602429 -9.96883223 3.96883223 -7.75 1.75 C-4.79010327 -0.13357065 -3.42491198 -0.39141851 0 0 Z " fill="#B7B8BA" transform="translate(243,198)"/>
<path d="M0 0 C0.66 0.66 1.32 1.32 2 2 C1.29875 2.515625 0.5975 3.03125 -0.125 3.5625 C-3.49467357 6.41939716 -6.21156604 9.58871997 -9 13 C-9.66 12.67 -10.32 12.34 -11 12 C-7.37 8.04 -3.74 4.08 0 0 Z " fill="#DBCCCF" transform="translate(138,159)"/>
<path d="M0 0 C0.99 0.66 1.98 1.32 3 2 C1.85675161 3.0029542 0.71032809 4.00229027 -0.4375 5 C-1.39462891 5.8353125 -1.39462891 5.8353125 -2.37109375 6.6875 C-4 8 -4 8 -5 8 C-5 6.35 -5 4.7 -5 3 C-3.35 2.67 -1.7 2.34 0 2 C0 1.34 0 0.68 0 0 Z " fill="#AA5052" transform="translate(238,89)"/>
<path d="M0 0 C1.32 0.66 2.64 1.32 4 2 C1.36 3.98 -1.28 5.96 -4 8 C-4 5 -4 5 -3 2 C-2.01 1.34 -1.02 0.68 0 0 Z " fill="#C99096" transform="translate(269,391)"/>
<path d="M0 0 C0 1.32 0 2.64 0 4 C0.66 4.33 1.32 4.66 2 5 C1.67 3.68 1.34 2.36 1 1 C1.99 1.33 2.98 1.66 4 2 C3.67 3.32 3.34 4.64 3 6 C1.02 6 -0.96 6 -3 6 C-3.33 4.35 -3.66 2.7 -4 1 C-2 0 -2 0 0 0 Z " fill="#9E292B" transform="translate(271,386)"/>
<path d="M0 0 C2.97 0.495 2.97 0.495 6 1 C6 1.66 6 2.32 6 3 C4.03852126 4.38938077 2.03833424 5.7260411 0 7 C-0.66 5.68 -1.32 4.36 -2 3 C-1.34 2.01 -0.68 1.02 0 0 Z " fill="#A1363A" transform="translate(265,378)"/>
<path d="M0 0 C2.78211944 0.37596209 4.5879284 0.67318459 6.8125 2.4375 C8 4 8 4 8 6 C2.33846154 4.52307692 2.33846154 4.52307692 0.625 1.875 C0.41875 1.25625 0.2125 0.6375 0 0 Z " fill="#A25155" transform="translate(189,287)"/>
<path d="M0 0 C1.98 0 3.96 0 6 0 C6 5.61 6 11.22 6 17 C5.67 17 5.34 17 5 17 C4.97421875 16.02417969 4.9484375 15.04835937 4.921875 14.04296875 C4.86515625 12.77066406 4.8084375 11.49835938 4.75 10.1875 C4.70359375 8.92292969 4.6571875 7.65835938 4.609375 6.35546875 C4.32743779 2.92847161 4.32743779 2.92847161 1.953125 1.05078125 C1.30859375 0.70402344 0.6640625 0.35726562 0 0 Z " fill="#F1F2F2" transform="translate(368,221)"/>
<path d="M0 0 C0.25 2.25 0.25 2.25 0 5 C-2 7.3125 -2 7.3125 -4 9 C-4.66 8.67 -5.32 8.34 -6 8 C-3.18918919 0 -3.18918919 0 0 0 Z " fill="#9E3A3D" transform="translate(135,179)"/>
<path d="M0 0 C0.33 0.66 0.66 1.32 1 2 C0.67 2.66 0.34 3.32 0 4 C-0.99 4.33 -1.98 4.66 -3 5 C-2.67 5.66 -2.34 6.32 -2 7 C-4.64 7.66 -7.28 8.32 -10 9 C-6.83047153 5.73991357 -3.60062011 2.77762123 0 0 Z " fill="#B45E62" transform="translate(219,81)"/>
<path d="M0 0 C-2.64 1.98 -5.28 3.96 -8 6 C-8 4.35 -8 2.7 -8 1 C-3.375 -1.125 -3.375 -1.125 0 0 Z " fill="#AD4F55" transform="translate(338,341)"/>
<path d="M0 0 C1.32 0.66 2.64 1.32 4 2 C1.36 3.65 -1.28 5.3 -4 7 C-4.33 6.34 -4.66 5.68 -5 5 C-3.35 3.35 -1.7 1.7 0 0 Z " fill="#9F1C1E" transform="translate(338,313)"/>
<path d="M0 0 C1.32 0.66 2.64 1.32 4 2 C1.36 3.98 -1.28 5.96 -4 8 C-4 7.01 -4 6.02 -4 5 C-3.34 5 -2.68 5 -2 5 C-2.33 4.01 -2.66 3.02 -3 2 C-2.01 2 -1.02 2 0 2 C0 1.34 0 0.68 0 0 Z " fill="#B14F52" transform="translate(373,308)"/>
<path d="M0 0 C1.31611677 0.95336021 2.62778961 1.91285774 3.9375 2.875 C4.66839844 3.40867188 5.39929688 3.94234375 6.15234375 4.4921875 C8 6 8 6 9 8 C4.25 7.25 4.25 7.25 2 5 C1.01 4.67 0.02 4.34 -1 4 C-0.34 4 0.32 4 1 4 C0.67 2.68 0.34 1.36 0 0 Z " fill="#B45A5E" transform="translate(456,185)"/>
<path d="M0 0 C1.98 0 3.96 0 6 0 C6.12375 0.804375 6.2475 1.60875 6.375 2.4375 C6.684375 3.7059375 6.684375 3.7059375 7 5 C7.66 5.33 8.32 5.66 9 6 C4.58763974 6 3.21615077 3.9302707 0 1 C0 0.67 0 0.34 0 0 Z " fill="#AF4E54" transform="translate(358,129)"/>
<path d="M0 0 C0.66 0.33 1.32 0.66 2 1 C-0.97 4.96 -0.97 4.96 -4 9 C-4.99 8.67 -5.98 8.34 -7 8 C-5.50902342 4.2047869 -3.24299151 2.38957269 0 0 Z " fill="#B0595C" transform="translate(285,353)"/>
<path d="M0 0 C2.97 0.495 2.97 0.495 6 1 C3.42215154 3.64752004 1.08351902 5.94432065 -2 8 C-2 7.01 -2 6.02 -2 5 C-1.34 5 -0.68 5 0 5 C0 3.35 0 1.7 0 0 Z " fill="#AE5556" transform="translate(341,332)"/>
<path d="M0 0 C2.6875 0.3125 2.6875 0.3125 5 1 C3.35 2.65 1.7 4.3 0 6 C-0.99 5.01 -1.98 4.02 -3 3 C-1.8125 1.4375 -1.8125 1.4375 0 0 Z " fill="#AB4649" transform="translate(197,122)"/>
<path d="M0 0 C3.53600465 1.91135386 5.78972846 3.62642766 8 7 C7.01 7.33 6.02 7.66 5 8 C4.67 7.01 4.34 6.02 4 5 C3.01 5 2.02 5 1 5 C0.67 3.35 0.34 1.7 0 0 Z " fill="#B3585A" transform="translate(377,118)"/>
<path d="M0 0 C0.66 0.33 1.32 0.66 2 1 C1.01 2.485 1.01 2.485 0 4 C-0.66 4 -1.32 4 -2 4 C-2.33 5.32 -2.66 6.64 -3 8 C-4.65 8 -6.3 8 -8 8 C-7.67 7.34 -7.34 6.68 -7 6 C-6.01 6 -5.02 6 -4 6 C-3.8453125 5.071875 -3.8453125 5.071875 -3.6875 4.125 C-3 2 -3 2 0 0 Z " fill="#982023" transform="translate(223,79)"/>
<path d="M0 0 C0.99 0.99 1.98 1.98 3 3 C1.02 4.32 -0.96 5.64 -3 7 C-3.33 5.35 -3.66 3.7 -4 2 C-2.68 1.34 -1.36 0.68 0 0 Z " fill="#AD4A4E" transform="translate(327,345)"/>
<path d="M0 0 C0.99 0.33 1.98 0.66 3 1 C3.33 3.31 3.66 5.62 4 8 C3.01 8 2.02 8 1 8 C0 2.25 0 2.25 0 0 Z " fill="#9B1E24" transform="translate(234,331)"/>
<path d="M0 0 C-1 3 -1 3 -3.3125 4.75 C-6.32190521 6.14972335 -6.98041673 5.95287489 -10 5 C-8.71186658 4.16121545 -7.41936744 3.32913217 -6.125 2.5 C-5.40570313 2.0359375 -4.68640625 1.571875 -3.9453125 1.09375 C-2 0 -2 0 0 0 Z " fill="#B26166" transform="translate(459,218)"/>
<path d="M0 0 C1.31611677 0.95336021 2.62778961 1.91285774 3.9375 2.875 C4.66839844 3.40867188 5.39929688 3.94234375 6.15234375 4.4921875 C8 6 8 6 9 8 C5.41209425 7.70100785 4.21833224 7.23013399 1.6875 4.5625 C0 2 0 2 0 0 Z " fill="#AE5C60" transform="translate(484,211)"/>
<path d="M0 0 C0.66 0.33 1.32 0.66 2 1 C2 1.66 2 2.32 2 3 C0.25 4.5078125 0.25 4.5078125 -2 6.125 C-2.7425 6.66382813 -3.485 7.20265625 -4.25 7.7578125 C-4.8275 8.16773438 -5.405 8.57765625 -6 9 C-5.21007484 4.75074742 -3.15346563 2.91089135 0 0 Z " fill="#B2B3B4" transform="translate(86,211)"/>
<path d="M0 0 C-1.97420135 2.52259061 -2.96745642 2.9929808 -6.1875 3.6875 C-7.5796875 3.8421875 -7.5796875 3.8421875 -9 4 C-8 1 -8 1 -6.1875 -0.25 C-3.66056586 -1.11637742 -2.47778006 -0.88492145 0 0 Z " fill="#B7B8B9" transform="translate(48,197)"/>
<path d="M0 0 C2.64 1.98 5.28 3.96 8 6 C7.01 6.66 6.02 7.32 5 8 C5 7.34 5 6.68 5 6 C4.34 6 3.68 6 3 6 C2.67 6.66 2.34 7.32 2 8 C2 6.35 2 4.7 2 3 C1.34 3 0.68 3 0 3 C0 2.01 0 1.02 0 0 Z " fill="#AB5658" transform="translate(442,173)"/>
<path d="M0 0 C2.31 0.33 4.62 0.66 7 1 C8 4 8 4 7 7 C5.83040013 6.02433888 4.66438823 5.044375 3.5 4.0625 C2.8503125 3.51722656 2.200625 2.97195312 1.53125 2.41015625 C1.0259375 1.94480469 0.520625 1.47945312 0 1 C0 0.67 0 0.34 0 0 Z " fill="#B3585D" transform="translate(368,138)"/>
<path d="M0 0 C0.99 0.33 1.98 0.66 3 1 C0.75 3.5625 0.75 3.5625 -2 6 C-4.3125 5.8125 -4.3125 5.8125 -6 5 C-1.60546875 0.99609375 -1.60546875 0.99609375 0 0 Z " fill="#A4575C" transform="translate(161,132)"/>
<path d="M0 0 C2.31 0.33 4.62 0.66 7 1 C7 2.98 7 4.96 7 7 C5.83040013 6.02433888 4.66438823 5.044375 3.5 4.0625 C2.8503125 3.51722656 2.200625 2.97195312 1.53125 2.41015625 C1.0259375 1.94480469 0.520625 1.47945313 0 1 C0 0.67 0 0.34 0 0 Z " fill="#A13F42" transform="translate(325,97)"/>
<path d="M0 0 C1.32 0.99 2.64 1.98 4 3 C-0.875 7 -0.875 7 -2 7 C-2 5.35 -2 3.7 -2 2 C-1.34 2 -0.68 2 0 2 C0 1.34 0 0.68 0 0 Z " fill="#AC474B" transform="translate(285,377)"/>
<path d="M0 0 C0.66 0.33 1.32 0.66 2 1 C0.94901234 3.86632997 0.33137046 4.83006643 -2.4375 6.25 C-5 7 -5 7 -8 7 C-5.36 4.69 -2.72 2.38 0 0 Z " fill="#B46365" transform="translate(340,309)"/>
<path d="M0 0 C0.33 0.66 0.66 1.32 1 2 C2.32 1.34 3.64 0.68 5 0 C4.67 0.99 4.34 1.98 4 3 C3.34 3 2.68 3 2 3 C2 3.66 2 4.32 2 5 C0.02 5.99 0.02 5.99 -2 7 C-1.125 1.125 -1.125 1.125 0 0 Z " fill="#CA7B7E" transform="translate(141,160)"/>
<path d="M0 0 C0.8353125 0.37125 0.8353125 0.37125 1.6875 0.75 C-1.2825 3.225 -1.2825 3.225 -4.3125 5.75 C-5.3025 5.09 -6.2925 4.43 -7.3125 3.75 C-2.88173077 -0.31153846 -2.88173077 -0.31153846 0 0 Z " fill="#A5494C" transform="translate(149.3125,149.25)"/>
<path d="M0 0 C1.32 0.33 2.64 0.66 4 1 C1.36 2.98 -1.28 4.96 -4 7 C-2.73033708 1.92134831 -2.73033708 1.92134831 0 0 Z " fill="#B26061" transform="translate(179,139)"/>
<path d="M0 0 C1.37562854 1.28965176 2.70766393 2.62689293 4 4 C4 4.66 4 5.32 4 6 C1.36 5.34 -1.28 4.68 -4 4 C-2.68 2.68 -1.36 1.36 0 0 Z " fill="#B3686B" transform="translate(291,20)"/>
<path d="M0 0 C2.94180214 2.02882906 4.97117094 4.05819786 7 7 C6.01 7.66 5.02 8.32 4 9 C0 2.25 0 2.25 0 0 Z " fill="#C17576" transform="translate(257,376)"/>
<path d="M0 0 C0.66 0.33 1.32 0.66 2 1 C1 4 1 4 -1.875 5.6875 C-5 7 -5 7 -8 7 C-5.36 4.69 -2.72 2.38 0 0 Z " fill="#B5656B" transform="translate(300,341)"/>
<path d="M0 0 C0.66 0.33 1.32 0.66 2 1 C0.02 3.97 0.02 3.97 -2 7 C-2.99 6.67 -3.98 6.34 -5 6 C-4.75 4.125 -4.75 4.125 -4 2 C-2.0625 0.6875 -2.0625 0.6875 0 0 Z " fill="#A21B1C" transform="translate(302,343)"/>
<path d="M0 0 C2.5 1.1875 2.5 1.1875 5 3 C5.3125 5.6875 5.3125 5.6875 5 8 C2.5 6.25 2.5 6.25 0 4 C0 2.68 0 1.36 0 0 Z " fill="#A95558" transform="translate(216,311)"/>
<path d="M0 0 C0.99 0.66 1.98 1.32 3 2 C-0.42346555 5.14958831 -3.44262737 5.56179109 -8 6 C-5.51047079 3.33264727 -3.36591866 1.44253657 0 0 Z " fill="#981E20" transform="translate(428,242)"/>
<path d="M0 0 C1.98 0 3.96 0 6 0 C4.86280581 3.41158256 3.95657056 4.11854601 1 6 C0.34 6 -0.32 6 -1 6 C-1 5.01 -1 4.02 -1 3 C-0.01 3 0.98 3 2 3 C2 2.34 2 1.68 2 1 C1.34 0.67 0.68 0.34 0 0 Z " fill="#AE585A" transform="translate(454,242)"/>
<path d="M0 0 C0 0.99 0 1.98 0 3 C-2.8125 5.25 -2.8125 5.25 -6 7 C-6.99 6.67 -7.98 6.34 -9 6 C-6.63672401 3.26357517 -4.36305523 2.23902035 -1 1 C-0.67 0.67 -0.34 0.34 0 0 Z " fill="#AA454E" transform="translate(431,238)"/>
<path d="M0 0 C2.19726562 1.85546875 2.19726562 1.85546875 4.39453125 3.7109375 C5.8655046 4.89201099 7.43037794 5.95358529 9 7 C7.3125 7.8125 7.3125 7.8125 5 8 C2.25 5.75 2.25 5.75 0 3 C0 2.01 0 1.02 0 0 Z " fill="#D0D0D0" transform="translate(89,232)"/>
<path d="M0 0 C3.67230705 3.07999946 4.56802365 5.2482602 5 10 C2 6.25 2 6.25 2 4 C1.01 4 0.02 4 -1 4 C-0.67 2.68 -0.34 1.36 0 0 Z " fill="#D1D1D1" transform="translate(322,214)"/>
<path d="M0 0 C0.66 1.32 1.32 2.64 2 4 C1.01 4.99 0.02 5.98 -1 7 C-1.66 6.67 -2.32 6.34 -3 6 C-2.625 3.5625 -2.625 3.5625 -2 1 C-1.34 0.67 -0.68 0.34 0 0 Z " fill="#9D1C1D" transform="translate(398,137)"/>
<path d="M0 0 C4.41889613 1.35021826 6.34345343 3.26115668 9 7 C6 7 6 7 4.39453125 5.46875 C3.87246094 4.8190625 3.35039062 4.169375 2.8125 3.5 C2.28269531 2.8503125 1.75289063 2.200625 1.20703125 1.53125 C0.80871094 1.0259375 0.41039062 0.520625 0 0 Z " fill="#9F4649" transform="translate(332,104)"/>
<path d="M0 0 C4 4.625 4 4.625 4 8 C2.35 7.67 0.7 7.34 -1 7 C-0.67 4.69 -0.34 2.38 0 0 Z " fill="#982025" transform="translate(254,373)"/>
<path d="M0 0 C1.32 0 2.64 0 4 0 C2.54744301 3.82946843 0.57104439 5.12050295 -3 7 C-3 5.68 -3 4.36 -3 3 C-1.68 3 -0.36 3 1 3 C0.67 2.01 0.34 1.02 0 0 Z " fill="#B45B5F" transform="translate(437,257)"/>
<path d="M0 0 C0.33 0.66 0.66 1.32 1 2 C0.67 2.66 0.34 3.32 0 4 C0.66 4.33 1.32 4.66 2 5 C-0.70879335 6.35439668 -3.00933268 6.06501451 -6 6 C-4 4 -2 2 0 0 Z " fill="#9D2F32" transform="translate(169,130)"/>
<path d="M0 0 C0.33 1.32 0.66 2.64 1 4 C-0.32 4.99 -1.64 5.98 -3 7 C-3.33 6.01 -3.66 5.02 -4 4 C-2.68 2.68 -1.36 1.36 0 0 Z " fill="#BC6B70" transform="translate(182,115)"/>
<path d="M0 0 C2.02054804 1.64169528 4.02043058 3.30911778 6 5 C6 5.33 6 5.66 6 6 C4.33388095 6.042721 2.66617115 6.04063832 1 6 C0 5 0 5 -0.0625 2.4375 C-0.041875 1.633125 -0.02125 0.82875 0 0 Z " fill="#B55E60" transform="translate(337,79)"/>
<path d="M0 0 C2.875 -0.125 2.875 -0.125 6 0 C6.66 0.66 7.32 1.32 8 2 C7.67 2.99 7.34 3.98 7 5 C6.67 4.01 6.34 3.02 6 2 C4.35 2.66 2.7 3.32 1 4 C0.67 2.68 0.34 1.36 0 0 Z " fill="#B75D64" transform="translate(282,51)"/>
<path d="M0 0 C0.66 0.33 1.32 0.66 2 1 C0.1875 4 0.1875 4 -2 7 C-2.99 7 -3.98 7 -5 7 C-5 6.01 -5 5.02 -5 4 C-2.5 1.8125 -2.5 1.8125 0 0 Z " fill="#DE8F91" transform="translate(283,370)"/>
<path d="M0 0 C0.625 1.8125 0.625 1.8125 1 4 C0.01 5.485 0.01 5.485 -1 7 C-1.38499891 8.65549531 -1.72793135 10.3222433 -2 12 C-2.33 12 -2.66 12 -3 12 C-3.2954439 6.97745369 -2.98514628 4.10457614 0 0 Z " fill="#C2C4C3" transform="translate(180,216)"/>
<path d="M0 0 C1.32 1.32 2.64 2.64 4 4 C3.34 4.66 2.68 5.32 2 6 C0.35 4.35 -1.3 2.7 -3 1 C-2.01 0.67 -1.02 0.34 0 0 Z " fill="#B14D53" transform="translate(424,182)"/>
<path d="M0 0 C0.99 0.33 1.98 0.66 3 1 C2.34 2.65 1.68 4.3 1 6 C0.01 6 -0.98 6 -2 6 C-1.125 1.125 -1.125 1.125 0 0 Z " fill="#CF9494" transform="translate(130,178)"/>
<path d="M0 0 C2.375 -0.1875 2.375 -0.1875 5 0 C5.66 0.99 6.32 1.98 7 3 C6.34 3.66 5.68 4.32 5 5 C3.35 3.35 1.7 1.7 0 0 Z " fill="#AD5358" transform="translate(407,171)"/>
<path d="M0 0 C2.475 0.495 2.475 0.495 5 1 C5.12375 1.61875 5.2475 2.2375 5.375 2.875 C5.87197356 5.19120832 5.87197356 5.19120832 8 7 C7.01 7 6.02 7 5 7 C3.61328125 5.46875 3.61328125 5.46875 2.3125 3.5 C1.87550781 2.8503125 1.43851562 2.200625 0.98828125 1.53125 C0.49908203 0.77328125 0.49908203 0.77328125 0 0 Z " fill="#B26162" transform="translate(311,82)"/>
<path d="M0 0 C3 1 3 1 5 4 C3.68 4.99 2.36 5.98 1 7 C1 5.68 1 4.36 1 3 C0.34 2.67 -0.32 2.34 -1 2 C-0.67 1.34 -0.34 0.68 0 0 Z " fill="#9C2929" transform="translate(274,370)"/>
<path d="M0 0 C2.475 0.495 2.475 0.495 5 1 C4.67 2.32 4.34 3.64 4 5 C3.01 4.67 2.02 4.34 1 4 C0.3125 1.9375 0.3125 1.9375 0 0 Z " fill="#A24549" transform="translate(229,326)"/>
<path d="M0 0 C0.66 0.33 1.32 0.66 2 1 C-1.32307692 5.8 -1.32307692 5.8 -4.75 6.8125 C-5.4925 6.874375 -6.235 6.93625 -7 7 C-4.66666667 4.66666667 -2.33333333 2.33333333 0 0 Z " fill="#BB7076" transform="translate(365,289)"/>
<path d="M0 0 C1.32 0.33 2.64 0.66 4 1 C2.35 2.65 0.7 4.3 -1 6 C-1.66 5.01 -2.32 4.02 -3 3 C-2.01 2.67 -1.02 2.34 0 2 C0 1.34 0 0.68 0 0 Z " fill="#B2555B" transform="translate(415,275)"/>
<path d="M0 0 C0.66 0.33 1.32 0.66 2 1 C1.4375 2.875 1.4375 2.875 0 5 C-3.625 6.25 -3.625 6.25 -7 7 C-4.66666667 4.66666667 -2.33333333 2.33333333 0 0 Z " fill="#BC7172" transform="translate(420,245)"/>
<path d="M0 0 C0.66 0.33 1.32 0.66 2 1 C-0.02882906 3.94180214 -2.05819786 5.97117094 -5 8 C-3.375 2.25 -3.375 2.25 0 0 Z " fill="#991D21" transform="translate(440,231)"/>
<path d="M0 0 C0.99 0.33 1.98 0.66 3 1 C0.525 4.465 0.525 4.465 -2 8 C-2.33 6.68 -2.66 5.36 -3 4 C-1.5625 1.75 -1.5625 1.75 0 0 Z " fill="#C4C4C5" transform="translate(135,212)"/>
<path d="M0 0 C2.97 0.495 2.97 0.495 6 1 C6 1.66 6 2.32 6 3 C6.66 3.66 7.32 4.32 8 5 C7.01 5.495 7.01 5.495 6 6 C3.97945196 4.35830472 1.97956942 2.69088222 0 1 C0 0.67 0 0.34 0 0 Z " fill="#B76567" transform="translate(444,203)"/>
<path d="M0 0 C1.32 0 2.64 0 4 0 C3.1875 1.9375 3.1875 1.9375 2 4 C1.01 4.33 0.02 4.66 -1 5 C-0.67 3.35 -0.34 1.7 0 0 Z " fill="#AD5154" transform="translate(159,155)"/>
<path d="M0 0 C0.66 0.33 1.32 0.66 2 1 C-0.625 6.75 -0.625 6.75 -4 9 C-3.67 8.401875 -3.34 7.80375 -3 7.1875 C-1.79212012 4.94613529 -1.79212012 4.94613529 -2 2 C-1.34 1.34 -0.68 0.68 0 0 Z " fill="#D89FA1" transform="translate(171,123)"/>
<path d="M0 0 C2.97 0.495 2.97 0.495 6 1 C6.33 2.65 6.66 4.3 7 6 C3.63279613 4.60667426 2.0140476 3.0210714 0 0 Z " fill="#BA6D6F" transform="translate(346,118)"/>
<path d="M0 0 C2.1875 0.3125 2.1875 0.3125 4 1 C2.35 2.32 0.7 3.64 -1 5 C-1.66 4.34 -2.32 3.68 -3 3 C-1.75 1.4375 -1.75 1.4375 0 0 Z " fill="#A84C4D" transform="translate(310,333)"/>
<path d="M0 0 C2.0625 0.4375 2.0625 0.4375 4 1 C2.25 4.875 2.25 4.875 0 6 C-0.38218767 4.34385343 -0.71395102 2.67542976 -1 1 C-0.67 0.67 -0.34 0.34 0 0 Z " fill="#A93E43" transform="translate(404,282)"/>
<path d="M0 0 C0.66 0 1.32 0 2 0 C2 0.99 2 1.98 2 3 C2.66 3 3.32 3 4 3 C2.25 6.875 2.25 6.875 0 8 C0 5.36 0 2.72 0 0 Z " fill="#AA4445" transform="translate(152,158)"/>
<path d="M0 0 C2.5 1.8125 2.5 1.8125 5 4 C5 4.99 5 5.98 5 7 C4.01 7 3.02 7 2 7 C1.34 4.69 0.68 2.38 0 0 Z " fill="#AF5355" transform="translate(415,150)"/>
<path d="M0 0 C1.98 0.66 3.96 1.32 6 2 C6 3.65 6 5.3 6 7 C1.125 2.25 1.125 2.25 0 0 Z " fill="#B6666A" transform="translate(305,75)"/>
<path d="M0 0 C2.62187494 1.04874998 3.79371361 1.64931313 5.25 4.125 C5.4975 4.74375 5.745 5.3625 6 6 C3 6 3 6 1.3125 4.6875 C0 3 0 3 0 0 Z " fill="#B36161" transform="translate(325,67)"/>
<path d="M0 0 C0.66 0.33 1.32 0.66 2 1 C1.3125 2.9375 1.3125 2.9375 0 5 C-2.625 5.75 -2.625 5.75 -5 6 C-3.35 4.02 -1.7 2.04 0 0 Z " fill="#B36263" transform="translate(262,44)"/>
</svg>
