<?xml version="1.0" standalone="no"?>
<!DOCTYPE svg PUBLIC "-//W3C//DTD SVG 20010904//EN"
 "http://www.w3.org/TR/2001/REC-SVG-20010904/DTD/svg10.dtd">
<svg version="1.0" xmlns="http://www.w3.org/2000/svg"
 width="518.000000pt" height="401.000000pt" viewBox="0 0 518.000000 401.000000"
 preserveAspectRatio="xMidYMid meet" style="color:red">

<g transform="translate(0.000000,401.000000) scale(0.100000,-0.100000)"
fill="#000000" stroke="none">
<path d="M2623 3552 c-153 -130 -372 -316 -488 -412 -115 -96 -244 -209 -285
-251 -41 -42 -140 -130 -220 -196 -175 -146 -210 -178 -210 -195 0 -7 24 10
53 38 43 42 125 112 340 292 10 9 17 11 17 4 0 -6 -31 -37 -68 -69 -291 -246
-381 -326 -376 -334 8 -13 33 3 84 55 24 25 48 46 52 46 21 0 2 -28 -59 -86
-37 -35 -64 -66 -60 -70 4 -4 22 6 39 22 18 16 5 -2 -28 -41 -93 -108 -149
-190 -101 -146 39 36 33 19 -19 -51 -44 -61 -87 -134 -66 -113 6 6 27 30 47
55 20 25 89 99 153 164 116 118 278 258 1122 965 69 58 166 140 216 183 51 43
96 78 101 78 5 0 50 -53 100 -117 134 -172 166 -208 387 -428 176 -176 367
-347 656 -590 189 -159 219 -185 339 -290 69 -60 131 -114 137 -120 6 -5 35
-32 64 -59 48 -45 52 -51 35 -60 -86 -50 -282 -202 -1025 -796 -470 -375 -862
-689 -871 -697 -14 -12 -23 -4 -80 69 -124 161 -299 355 -480 534 -218 214
-489 444 -489 415 0 -5 45 -46 100 -91 144 -117 307 -268 453 -421 132 -137
162 -174 131 -162 -14 5 -15 3 -5 -15 6 -11 16 -24 22 -27 26 -17 211 -249
200 -253 -6 -2 -18 2 -26 8 -33 27 -11 -13 61 -114 67 -94 78 -105 93 -94 9 7
64 49 121 92 130 98 146 108 95 61 -57 -53 -236 -198 -239 -194 -2 2 -22 31
-46 64 -40 55 -133 169 -166 205 -12 12 -14 11 -14 -7 0 -16 187 -312 215
-342 2 -2 16 6 31 18 36 28 44 18 13 -16 l-24 -27 32 25 c61 47 706 561 1313
1046 395 316 638 504 680 525 l64 33 163 -3 c135 -2 161 0 157 12 -3 7 -84 89
-181 182 -158 152 -382 348 -831 727 -83 70 -175 149 -204 175 -441 395 -661
633 -868 942 -33 49 -65 90 -70 90 -6 0 -135 -107 -287 -238z m-733 -636 c0
-2 -8 -10 -17 -17 -16 -13 -17 -12 -4 4 13 16 21 21 21 13z"/>
</g>
</svg>
